<svg width="14" height="14" viewBox="0 0 14 14" fill="none" xmlns="http://www.w3.org/2000/svg">
<path fill-rule="evenodd" clip-rule="evenodd" d="M1 7C1 6.58579 1.3888 6.25 1.86842 6.25H11.1316C11.6112 6.25 12 6.58579 12 7C12 7.41421 11.6112 7.75 11.1316 7.75H1.86842C1.3888 7.75 1 7.41421 1 7Z" fill="#14A800"/>
<path fill-rule="evenodd" clip-rule="evenodd" d="M8.21967 2.46967C8.51256 2.17678 8.98744 2.17678 9.28033 2.46967L13.2803 6.46968C13.421 6.61033 13.5 6.8011 13.5 7.00001C13.5 7.19892 13.421 7.38969 13.2803 7.53034L9.28033 11.5303C8.98744 11.8232 8.51256 11.8232 8.21967 11.5303C7.92678 11.2375 7.92678 10.7626 8.21967 10.4697L11.6893 7.00001L8.21967 3.53033C7.92678 3.23744 7.92678 2.76256 8.21967 2.46967Z" fill="#14A800"/>
</svg>
