<svg width="24" height="24" viewBox="0 0 24 24" fill="none" xmlns="http://www.w3.org/2000/svg">
<path d="M19.67 3H4.33C3.59 3 3 3.59 3 4.33V19.67C3 20.4 3.59 21 4.33 21H19.67C20.4 21 21 20.41 21 19.67V4.33C21 3.6 20.41 3 19.67 3ZM8.36 18.33H5.65V9.74H8.36V18.34V18.33ZM7.01 8.55C6.15 8.55 5.45 7.89 5.45 7C5.45 6.11 6.15 5.45 7.01 5.45C7.87 5.45 8.57 6.11 8.57 7C8.57 7.89 7.87 8.55 7.01 8.55ZM18.34 18.34H15.63V13.64C15.63 12.25 15.04 11.83 14.28 11.83C13.48 11.83 12.69 12.43 12.69 13.68V18.34H9.98V9.74H12.58V10.93H12.61C12.87 10.4 13.79 9.5 15.18 9.5C16.69 9.5 18.32 10.4 18.32 13.02V18.34H18.34Z" fill="white"/>
</svg>
