<?xml version="1.0" encoding="UTF-8"?>
<svg xmlns="http://www.w3.org/2000/svg" xmlns:xlink="http://www.w3.org/1999/xlink" width="80px" height="72px" viewBox="0 0 80 72" version="1.1">
<defs>
<linearGradient id="linear0" gradientUnits="userSpaceOnUse" x1="-0.0221564" y1="100.666" x2="145.022" y2="100.666" gradientTransform="matrix(0.551724,0,0,0.553846,0,0)">
<stop offset="0" style="stop-color:rgb(76.470588%,82.352941%,76.470588%);stop-opacity:0;"/>
<stop offset="0.3094" style="stop-color:rgb(76.470588%,82.352941%,76.470588%);stop-opacity:1;"/>
<stop offset="0.3737" style="stop-color:rgb(76.470588%,82.352941%,76.470588%);stop-opacity:1;"/>
<stop offset="0.7504" style="stop-color:rgb(76.470588%,82.352941%,76.470588%);stop-opacity:1;"/>
<stop offset="1" style="stop-color:rgb(76.470588%,82.352941%,76.470588%);stop-opacity:0.0156863;"/>
</linearGradient>
<linearGradient id="linear1" gradientUnits="userSpaceOnUse" x1="71.875" y1="102.057" x2="71.875" y2="20.0436" gradientTransform="matrix(0.551724,0,0,0.553846,0,0)">
<stop offset="0" style="stop-color:rgb(89.411765%,92.156863%,89.411765%);stop-opacity:1;"/>
<stop offset="0.61" style="stop-color:rgb(88.627451%,91.372549%,88.627451%);stop-opacity:1;"/>
<stop offset="0.89" style="stop-color:rgb(85.882353%,89.411765%,85.882353%);stop-opacity:1;"/>
<stop offset="1" style="stop-color:rgb(83.529412%,87.843137%,83.529412%);stop-opacity:1;"/>
</linearGradient>
<linearGradient id="linear2" gradientUnits="userSpaceOnUse" x1="55.9691" y1="73.9337" x2="87.8246" y2="73.9337" gradientTransform="matrix(0.551724,0,0,0.553846,0,0)">
<stop offset="0" style="stop-color:rgb(96.862745%,69.019608%,69.803922%);stop-opacity:1;"/>
<stop offset="1" style="stop-color:rgb(96.470588%,42.745098%,73.72549%);stop-opacity:1;"/>
</linearGradient>
<linearGradient id="linear3" gradientUnits="userSpaceOnUse" x1="68.074" y1="48.4227" x2="75.7181" y2="48.4227" gradientTransform="matrix(0.551724,0,0,0.553846,0,0)">
<stop offset="0.5205" style="stop-color:rgb(96.862745%,69.019608%,69.803922%);stop-opacity:1;"/>
<stop offset="0.6422" style="stop-color:rgb(93.333333%,64.705882%,65.882353%);stop-opacity:1;"/>
<stop offset="0.8561" style="stop-color:rgb(83.529412%,52.941176%,55.294118%);stop-opacity:1;"/>
<stop offset="1" style="stop-color:rgb(75.686275%,43.921569%,47.058824%);stop-opacity:1;"/>
</linearGradient>
<linearGradient id="linear4" gradientUnits="userSpaceOnUse" x1="73.4886" y1="49.9848" x2="73.4886" y2="48.059" gradientTransform="matrix(0.551724,0,0,0.553846,0,0)">
<stop offset="0" style="stop-color:rgb(62.745098%,37.647059%,41.176471%);stop-opacity:0;"/>
<stop offset="1" style="stop-color:rgb(62.745098%,37.647059%,41.176471%);stop-opacity:1;"/>
</linearGradient>
<radialGradient id="radial0" gradientUnits="userSpaceOnUse" cx="0" cy="0" fx="0" fy="0" r="1" gradientTransform="matrix(4.3728,0,0,4.389624,38.82251,22.237255)">
<stop offset="0.6772" style="stop-color:rgb(96.862745%,69.019608%,69.803922%);stop-opacity:1;"/>
<stop offset="0.7973" style="stop-color:rgb(90.196078%,60.784314%,62.352941%);stop-opacity:1;"/>
<stop offset="1" style="stop-color:rgb(75.686275%,43.921569%,47.058824%);stop-opacity:1;"/>
</radialGradient>
<radialGradient id="radial1" gradientUnits="userSpaceOnUse" cx="0" cy="0" fx="0" fy="0" r="1" gradientTransform="matrix(11.081545,0,0,11.124166,39.158566,27.413003)">
<stop offset="0.6772" style="stop-color:rgb(7.843137%,65.882353%,0%);stop-opacity:1;"/>
<stop offset="0.8024" style="stop-color:rgb(7.45098%,57.647059%,0%);stop-opacity:1;"/>
<stop offset="1" style="stop-color:rgb(7.058824%,41.960784%,0%);stop-opacity:1;"/>
</radialGradient>
<linearGradient id="linear5" gradientUnits="userSpaceOnUse" x1="29.0992" y1="48.4227" x2="36.7433" y2="48.4227" gradientTransform="matrix(0.551724,0,0,0.553846,0,0)">
<stop offset="0.5205" style="stop-color:rgb(83.529412%,87.843137%,83.529412%);stop-opacity:1;"/>
<stop offset="0.6453" style="stop-color:rgb(79.215686%,83.921569%,79.215686%);stop-opacity:1;"/>
<stop offset="0.8645" style="stop-color:rgb(68.235294%,74.117647%,67.45098%);stop-opacity:1;"/>
<stop offset="1" style="stop-color:rgb(60.392157%,66.666667%,59.215686%);stop-opacity:1;"/>
</linearGradient>
<linearGradient id="linear6" gradientUnits="userSpaceOnUse" x1="34.5139" y1="49.9848" x2="34.5139" y2="48.059" gradientTransform="matrix(0.551724,0,0,0.553846,0,0)">
<stop offset="0" style="stop-color:rgb(39.607843%,45.098039%,35.686275%);stop-opacity:0;"/>
<stop offset="1" style="stop-color:rgb(39.607843%,45.098039%,35.686275%);stop-opacity:1;"/>
</linearGradient>
<radialGradient id="radial2" gradientUnits="userSpaceOnUse" cx="0" cy="0" fx="0" fy="0" r="1" gradientTransform="matrix(4.372806,0,0,4.389624,17.319228,22.237255)">
<stop offset="0.6772" style="stop-color:rgb(83.529412%,87.843137%,83.529412%);stop-opacity:1;"/>
<stop offset="0.8007" style="stop-color:rgb(75.686275%,80.784314%,75.294118%);stop-opacity:1;"/>
<stop offset="1" style="stop-color:rgb(60.392157%,66.666667%,59.215686%);stop-opacity:1;"/>
</radialGradient>
<radialGradient id="radial3" gradientUnits="userSpaceOnUse" cx="0" cy="0" fx="0" fy="0" r="1" gradientTransform="matrix(11.081545,0,0,11.124166,17.655172,27.413003)">
<stop offset="0.6772" style="stop-color:rgb(60.392157%,66.666667%,59.215686%);stop-opacity:1;"/>
<stop offset="0.8043" style="stop-color:rgb(53.333333%,59.215686%,50.980392%);stop-opacity:1;"/>
<stop offset="1" style="stop-color:rgb(39.607843%,45.098039%,35.686275%);stop-opacity:1;"/>
</radialGradient>
<linearGradient id="linear7" gradientUnits="userSpaceOnUse" x1="108.258" y1="48.4227" x2="115.902" y2="48.4227" gradientTransform="matrix(0.551724,0,0,0.553846,0,0)">
<stop offset="0.5205" style="stop-color:rgb(83.529412%,87.843137%,83.529412%);stop-opacity:1;"/>
<stop offset="0.6453" style="stop-color:rgb(79.215686%,83.921569%,79.215686%);stop-opacity:1;"/>
<stop offset="0.8645" style="stop-color:rgb(68.235294%,74.117647%,67.45098%);stop-opacity:1;"/>
<stop offset="1" style="stop-color:rgb(60.392157%,66.666667%,59.215686%);stop-opacity:1;"/>
</linearGradient>
<linearGradient id="linear8" gradientUnits="userSpaceOnUse" x1="113.672" y1="49.9848" x2="113.672" y2="48.059" gradientTransform="matrix(0.551724,0,0,0.553846,0,0)">
<stop offset="0" style="stop-color:rgb(39.607843%,45.098039%,35.686275%);stop-opacity:0;"/>
<stop offset="1" style="stop-color:rgb(39.607843%,45.098039%,35.686275%);stop-opacity:1;"/>
</linearGradient>
<radialGradient id="radial4" gradientUnits="userSpaceOnUse" cx="0" cy="0" fx="0" fy="0" r="1" gradientTransform="matrix(4.3728,0,0,4.389624,60.993103,22.237255)">
<stop offset="0.6772" style="stop-color:rgb(83.529412%,87.843137%,83.529412%);stop-opacity:1;"/>
<stop offset="0.8007" style="stop-color:rgb(75.686275%,80.784314%,75.294118%);stop-opacity:1;"/>
<stop offset="1" style="stop-color:rgb(60.392157%,66.666667%,59.215686%);stop-opacity:1;"/>
</radialGradient>
<radialGradient id="radial5" gradientUnits="userSpaceOnUse" cx="0" cy="0" fx="0" fy="0" r="1" gradientTransform="matrix(11.08149,0,0,11.124166,61.329103,27.413003)">
<stop offset="0.6772" style="stop-color:rgb(60.392157%,66.666667%,59.215686%);stop-opacity:1;"/>
<stop offset="0.8043" style="stop-color:rgb(53.333333%,59.215686%,50.980392%);stop-opacity:1;"/>
<stop offset="1" style="stop-color:rgb(39.607843%,45.098039%,35.686275%);stop-opacity:1;"/>
</radialGradient>
<radialGradient id="radial6" gradientUnits="userSpaceOnUse" cx="0" cy="0" fx="0" fy="0" r="1" gradientTransform="matrix(0.56427,0,0,0.566441,8.6176,12.282812)">
<stop offset="0" style="stop-color:rgb(7.843137%,65.882353%,0%);stop-opacity:1;"/>
<stop offset="0.3343" style="stop-color:rgb(7.843137%,64.705882%,0%);stop-opacity:1;"/>
<stop offset="0.5569" style="stop-color:rgb(7.843137%,61.176471%,0%);stop-opacity:1;"/>
<stop offset="0.747" style="stop-color:rgb(7.45098%,55.294118%,0%);stop-opacity:1;"/>
<stop offset="0.9178" style="stop-color:rgb(7.058824%,47.058824%,0%);stop-opacity:1;"/>
<stop offset="1" style="stop-color:rgb(7.058824%,41.960784%,0%);stop-opacity:1;"/>
</radialGradient>
<radialGradient id="radial7" gradientUnits="userSpaceOnUse" cx="0" cy="0" fx="0" fy="0" r="1" gradientTransform="matrix(0.56427,0,0,0.566441,6.873655,12.282702)">
<stop offset="0" style="stop-color:rgb(0.392157%,80.392157%,74.509804%);stop-opacity:1;"/>
<stop offset="0.2649" style="stop-color:rgb(0.784314%,79.215686%,74.509804%);stop-opacity:1;"/>
<stop offset="0.4414" style="stop-color:rgb(1.568627%,75.686275%,74.509804%);stop-opacity:1;"/>
<stop offset="0.5921" style="stop-color:rgb(3.137255%,69.803922%,74.901961%);stop-opacity:1;"/>
<stop offset="0.7283" style="stop-color:rgb(5.098039%,61.568627%,75.294118%);stop-opacity:1;"/>
<stop offset="0.8548" style="stop-color:rgb(7.843137%,50.588235%,75.686275%);stop-opacity:1;"/>
<stop offset="0.9724" style="stop-color:rgb(11.372549%,37.647059%,76.470588%);stop-opacity:1;"/>
<stop offset="1" style="stop-color:rgb(12.156863%,34.117647%,76.470588%);stop-opacity:1;"/>
</radialGradient>
</defs>
<g id="surface1">
<path style=" stroke:none;fill-rule:nonzero;fill:url(#linear0);" d="M 79.347656 55.078125 L 0.652344 55.078125 C 0.289062 55.078125 0 55.367188 0 55.730469 C 0 56.09375 0.289062 56.386719 0.652344 56.386719 L 79.347656 56.386719 C 79.710938 56.386719 80 56.09375 80 55.730469 C 80 55.367188 79.710938 55.078125 79.347656 55.078125 Z M 79.347656 55.078125 "/>
<path style=" stroke:none;fill-rule:nonzero;fill:rgb(60.392157%,66.666667%,59.215686%);fill-opacity:1;" d="M 73.492188 56.457031 C 73.996094 56.457031 74.429688 56.023438 74.429688 55.515625 L 74.429688 12.238281 C 74.429688 11.585938 73.996094 11.078125 73.417969 11.078125 L 7.234375 11.078125 C 6.65625 11.078125 6.222656 11.585938 6.222656 12.238281 L 6.222656 55.441406 C 6.222656 55.949219 6.65625 56.386719 7.160156 56.386719 L 73.492188 56.386719 Z M 73.492188 56.457031 "/>
<path style=" stroke:none;fill-rule:nonzero;fill:url(#linear1);" d="M 72.839844 56.457031 C 73.34375 56.457031 73.78125 56.023438 73.78125 55.515625 L 73.78125 12.238281 C 73.78125 11.585938 73.34375 11.078125 72.765625 11.078125 L 6.582031 11.078125 C 6.003906 11.078125 5.570312 11.585938 5.570312 12.238281 L 5.570312 55.441406 C 5.570312 55.949219 6.003906 56.386719 6.511719 56.386719 L 72.839844 56.386719 Z M 72.839844 56.457031 "/>
<path style=" stroke:none;fill-rule:nonzero;fill:rgb(77.254902%,81.960784%,76.470588%);fill-opacity:1;" d="M 72.765625 11.078125 L 6.582031 11.078125 C 6.003906 11.078125 5.570312 11.511719 5.570312 12.09375 L 5.570312 13.691406 L 73.851562 13.691406 L 73.851562 12.09375 C 73.78125 11.585938 73.34375 11.078125 72.765625 11.078125 Z M 72.765625 11.078125 "/>
<path style=" stroke:none;fill-rule:nonzero;fill:url(#linear2);" d="M 47.449219 43.316406 L 31.898438 43.316406 C 31.320312 43.316406 30.886719 42.878906 30.886719 42.300781 L 30.886719 39.539062 C 30.886719 38.960938 31.320312 38.523438 31.898438 38.523438 L 47.449219 38.523438 C 48.03125 38.523438 48.464844 38.960938 48.464844 39.539062 L 48.464844 42.300781 C 48.464844 42.878906 48.03125 43.316406 47.449219 43.316406 Z M 47.449219 43.316406 "/>
<path style=" stroke:none;fill-rule:nonzero;fill:rgb(76.470588%,82.352941%,76.470588%);fill-opacity:1;" d="M 25.96875 43.316406 L 10.34375 43.316406 C 9.765625 43.316406 9.332031 42.878906 9.332031 42.300781 L 9.332031 39.539062 C 9.332031 38.960938 9.765625 38.523438 10.34375 38.523438 L 25.894531 38.523438 C 26.472656 38.523438 26.90625 38.960938 26.90625 39.539062 L 26.90625 42.300781 C 26.980469 42.878906 26.472656 43.316406 25.96875 43.316406 Z M 25.96875 43.316406 "/>
<path style=" stroke:none;fill-rule:nonzero;fill:rgb(76.470588%,82.352941%,76.470588%);fill-opacity:1;" d="M 69.65625 43.316406 L 54.03125 43.316406 C 53.453125 43.316406 53.019531 42.878906 53.019531 42.300781 L 53.019531 39.539062 C 53.019531 38.960938 53.453125 38.523438 54.03125 38.523438 L 69.65625 38.523438 C 70.234375 38.523438 70.667969 38.960938 70.667969 39.539062 L 70.667969 42.300781 C 70.597656 42.878906 70.164062 43.316406 69.65625 43.316406 Z M 69.65625 43.316406 "/>
<path style=" stroke:none;fill-rule:nonzero;fill:rgb(76.470588%,82.352941%,76.470588%);fill-opacity:1;" d="M 39.640625 35.691406 C 44.671875 35.691406 48.753906 31.59375 48.753906 26.542969 C 48.753906 21.488281 44.671875 17.394531 39.640625 17.394531 C 34.605469 17.394531 30.523438 21.488281 30.523438 26.542969 C 30.523438 31.59375 34.605469 35.691406 39.640625 35.691406 Z M 39.640625 35.691406 "/>
<path style=" stroke:none;fill-rule:nonzero;fill:url(#linear3);" d="M 41.808594 28.210938 L 41.375 25.453125 L 37.976562 25.453125 L 37.539062 28.210938 Z M 41.808594 28.210938 "/>
<path style=" stroke:none;fill-rule:nonzero;fill:url(#linear4);" d="M 39.640625 27.125 C 40.722656 27.125 41.664062 27.632812 41.664062 27.632812 L 41.519531 26.542969 L 39.347656 26.542969 Z M 39.640625 27.125 "/>
<path style=" stroke:none;fill-rule:nonzero;fill:url(#radial0);" d="M 37.539062 26.46875 L 37.613281 26.542969 C 38.191406 26.90625 38.914062 27.195312 39.636719 27.195312 C 40.433594 27.195312 41.15625 26.90625 41.808594 26.46875 C 42.75 25.816406 43.328125 24.726562 43.328125 23.492188 C 43.328125 21.460938 41.734375 19.789062 39.710938 19.789062 C 37.6875 19.789062 36.023438 21.386719 35.949219 23.421875 C 35.949219 24.65625 36.601562 25.746094 37.539062 26.46875 Z M 37.539062 26.46875 "/>
<path style=" stroke:none;fill-rule:nonzero;fill:url(#radial1);" d="M 47.523438 29.230469 C 46.800781 28.066406 45.496094 27.414062 44.125 27.414062 C 43.761719 27.414062 43.398438 27.488281 43.039062 27.558594 L 42.097656 27.851562 C 40.507812 28.285156 38.914062 28.285156 37.324219 27.851562 L 36.382812 27.558594 C 36.023438 27.488281 35.660156 27.414062 35.296875 27.414062 C 33.925781 27.414062 32.621094 28.140625 31.898438 29.230469 C 31.683594 29.519531 31.539062 29.882812 31.394531 30.246094 C 32.839844 33.441406 36.023438 35.691406 39.785156 35.691406 C 43.542969 35.691406 46.726562 33.441406 48.175781 30.246094 C 47.882812 29.882812 47.738281 29.519531 47.523438 29.230469 Z M 47.523438 29.230469 "/>
<path style=" stroke:none;fill-rule:nonzero;fill:rgb(76.470588%,82.352941%,76.470588%);fill-opacity:1;" d="M 18.15625 35.691406 C 23.1875 35.691406 27.269531 31.59375 27.269531 26.542969 C 27.269531 21.488281 23.1875 17.394531 18.15625 17.394531 C 13.121094 17.394531 9.042969 21.488281 9.042969 26.542969 C 9.042969 31.59375 13.121094 35.691406 18.15625 35.691406 Z M 18.15625 35.691406 "/>
<path style=" stroke:none;fill-rule:nonzero;fill:url(#linear5);" d="M 20.253906 28.210938 L 19.890625 25.453125 L 16.417969 25.453125 L 16.058594 28.210938 Z M 20.253906 28.210938 "/>
<path style=" stroke:none;fill-rule:nonzero;fill:url(#linear6);" d="M 18.15625 27.125 C 19.242188 27.125 20.179688 27.632812 20.179688 27.632812 L 20.035156 26.542969 L 17.867188 26.542969 Z M 18.15625 27.125 "/>
<path style=" stroke:none;fill-rule:nonzero;fill:url(#radial2);" d="M 16.058594 26.46875 L 16.128906 26.542969 C 16.710938 26.90625 17.433594 27.195312 18.15625 27.195312 C 18.953125 27.195312 19.675781 26.90625 20.324219 26.46875 C 21.265625 25.816406 21.84375 24.726562 21.84375 23.492188 C 21.84375 21.460938 20.253906 19.789062 18.226562 19.789062 C 16.203125 19.789062 14.539062 21.386719 14.46875 23.421875 C 14.46875 24.65625 15.046875 25.746094 16.058594 26.46875 Z M 16.058594 26.46875 "/>
<path style=" stroke:none;fill-rule:nonzero;fill:url(#radial3);" d="M 26.039062 29.230469 C 25.316406 28.066406 24.015625 27.414062 22.640625 27.414062 C 22.277344 27.414062 21.917969 27.488281 21.554688 27.558594 L 20.617188 27.851562 C 19.023438 28.285156 17.433594 28.285156 15.839844 27.851562 L 14.902344 27.558594 C 14.539062 27.488281 14.175781 27.414062 13.816406 27.414062 C 12.441406 27.414062 11.140625 28.140625 10.417969 29.230469 C 10.199219 29.519531 10.054688 29.882812 9.910156 30.246094 C 11.355469 33.441406 14.539062 35.691406 18.300781 35.691406 C 22.0625 35.691406 25.246094 33.441406 26.691406 30.246094 C 26.402344 29.882812 26.257812 29.519531 26.039062 29.230469 Z M 26.039062 29.230469 "/>
<path style=" stroke:none;fill-rule:nonzero;fill:rgb(76.470588%,82.352941%,76.470588%);fill-opacity:1;" d="M 61.84375 35.691406 C 66.878906 35.691406 70.957031 31.59375 70.957031 26.542969 C 70.957031 21.488281 66.878906 17.394531 61.84375 17.394531 C 56.8125 17.394531 52.730469 21.488281 52.730469 26.542969 C 52.730469 31.59375 56.8125 35.691406 61.84375 35.691406 Z M 61.84375 35.691406 "/>
<path style=" stroke:none;fill-rule:nonzero;fill:url(#linear7);" d="M 63.941406 28.210938 L 63.582031 25.453125 L 60.109375 25.453125 L 59.746094 28.210938 Z M 63.941406 28.210938 "/>
<path style=" stroke:none;fill-rule:nonzero;fill:url(#linear8);" d="M 61.84375 27.125 C 62.929688 27.125 63.871094 27.632812 63.871094 27.632812 L 63.726562 26.542969 L 61.554688 26.542969 Z M 61.84375 27.125 "/>
<path style=" stroke:none;fill-rule:nonzero;fill:url(#radial4);" d="M 59.675781 26.46875 L 59.746094 26.542969 C 60.328125 26.90625 61.050781 27.195312 61.773438 27.195312 C 62.570312 27.195312 63.292969 26.90625 63.941406 26.46875 C 64.882812 25.816406 65.460938 24.726562 65.460938 23.492188 C 65.460938 21.460938 63.871094 19.789062 61.84375 19.789062 C 59.820312 19.789062 58.15625 21.386719 58.082031 23.421875 C 58.15625 24.65625 58.734375 25.746094 59.675781 26.46875 Z M 59.675781 26.46875 "/>
<path style=" stroke:none;fill-rule:nonzero;fill:url(#radial5);" d="M 69.730469 29.230469 C 69.007812 28.066406 67.703125 27.414062 66.328125 27.414062 C 65.96875 27.414062 65.605469 27.488281 65.246094 27.558594 L 64.304688 27.851562 C 62.714844 28.285156 61.121094 28.285156 59.53125 27.851562 L 58.589844 27.558594 C 58.230469 27.488281 57.867188 27.414062 57.503906 27.414062 C 56.132812 27.414062 54.828125 28.140625 54.105469 29.230469 C 53.890625 29.519531 53.742188 29.882812 53.597656 30.246094 C 55.046875 33.441406 58.230469 35.691406 61.988281 35.691406 C 65.75 35.691406 68.933594 33.441406 70.378906 30.246094 C 70.089844 29.882812 69.945312 29.519531 69.730469 29.230469 Z M 69.730469 29.230469 "/>
<path style=" stroke:none;fill-rule:nonzero;fill:url(#radial6);" d="M 9.332031 12.457031 C 9.332031 12.746094 9.113281 13.035156 8.753906 13.035156 C 8.460938 13.035156 8.171875 12.820312 8.171875 12.457031 C 8.171875 12.09375 8.390625 11.875 8.753906 11.875 C 9.042969 11.875 9.332031 12.09375 9.332031 12.457031 Z M 9.332031 12.457031 "/>
<path style=" stroke:none;fill-rule:nonzero;fill:url(#radial7);" d="M 7.523438 12.457031 C 7.523438 12.746094 7.304688 13.035156 6.945312 13.035156 C 6.65625 13.035156 6.367188 12.820312 6.367188 12.457031 C 6.367188 12.09375 6.582031 11.875 6.945312 11.875 C 7.304688 11.875 7.523438 12.09375 7.523438 12.457031 Z M 7.523438 12.457031 "/>
<path style=" stroke:none;fill-rule:nonzero;fill:rgb(100%,100%,100%);fill-opacity:1;" d="M 43.253906 54.496094 L 44.195312 54.496094 L 44.195312 56.3125 L 45.0625 56.3125 L 45.0625 58.128906 L 46.003906 58.128906 L 46.003906 59.941406 L 47.8125 59.941406 L 47.8125 58.128906 L 46.945312 58.128906 L 46.945312 56.3125 L 46.003906 56.3125 L 46.003906 54.496094 L 45.0625 54.496094 L 45.0625 51.738281 L 47.8125 51.738281 L 47.8125 50.792969 L 46.945312 50.792969 L 46.945312 49.921875 L 46.003906 49.921875 L 46.003906 48.980469 L 45.0625 48.980469 L 45.0625 48.109375 L 44.195312 48.109375 L 44.195312 47.164062 L 43.253906 47.164062 L 43.253906 46.292969 L 42.386719 46.292969 L 42.386719 45.347656 L 41.445312 45.347656 L 41.445312 44.476562 L 40.578125 44.476562 L 40.578125 43.53125 L 39.636719 43.53125 L 39.636719 55.367188 L 40.578125 55.367188 L 40.578125 54.496094 L 41.445312 54.496094 L 41.445312 53.554688 L 42.386719 53.554688 L 42.386719 52.683594 L 43.253906 52.683594 Z M 43.253906 54.496094 "/>
<path style=" stroke:none;fill-rule:nonzero;fill:rgb(7.45098%,32.941176%,30.588235%);fill-opacity:1;" d="M 39.636719 55.367188 L 40.578125 55.367188 L 40.578125 56.3125 L 39.636719 56.3125 L 39.636719 57.257812 L 38.699219 57.257812 L 38.699219 41.71875 L 39.636719 41.71875 L 39.636719 42.660156 L 40.578125 42.660156 L 40.578125 43.605469 L 39.636719 43.605469 Z M 41.445312 43.53125 L 40.507812 43.53125 L 40.507812 44.476562 L 41.445312 44.476562 Z M 42.386719 45.347656 L 42.386719 44.40625 L 41.445312 44.40625 L 41.445312 45.347656 Z M 43.253906 45.347656 L 42.316406 45.347656 L 42.316406 46.292969 L 43.253906 46.292969 Z M 43.253906 47.164062 L 44.195312 47.164062 L 44.195312 46.21875 L 43.253906 46.21875 Z M 46.945312 49.921875 L 46.945312 50.867188 L 47.882812 50.867188 L 47.882812 49.921875 Z M 45.0625 47.164062 L 44.121094 47.164062 L 44.121094 48.109375 L 45.0625 48.109375 Z M 46.945312 49.921875 L 46.945312 48.980469 L 46.003906 48.980469 L 46.003906 49.921875 Z M 45.0625 48.109375 L 45.0625 48.980469 L 46.003906 48.980469 L 46.003906 48.035156 L 45.0625 48.035156 Z M 44.195312 56.894531 L 44.195312 58.128906 L 45.0625 58.128906 L 45.0625 56.238281 L 44.121094 56.238281 L 44.121094 56.894531 Z M 47.8125 56.3125 L 46.871094 56.3125 L 46.871094 58.199219 L 47.8125 58.199219 Z M 40.578125 55.367188 L 41.445312 55.367188 L 41.445312 54.425781 L 40.507812 54.425781 L 40.507812 55.367188 Z M 46.945312 55.367188 L 46.945312 54.425781 L 46.003906 54.425781 L 46.003906 56.3125 L 46.945312 56.3125 Z M 48.753906 51.738281 L 48.753906 50.792969 L 47.8125 50.792969 L 47.8125 51.738281 L 45.0625 51.738281 L 45.0625 54.570312 L 46.003906 54.570312 L 46.003906 52.683594 L 49.621094 52.683594 L 49.621094 51.738281 Z M 47.8125 58.707031 L 47.8125 60.015625 L 48.753906 60.015625 L 48.753906 58.128906 L 47.8125 58.128906 Z M 42.386719 53.554688 L 41.445312 53.554688 L 41.445312 54.496094 L 43.328125 54.496094 L 43.328125 52.609375 L 42.386719 52.609375 Z M 44.195312 55.152344 L 44.195312 54.496094 L 43.253906 54.496094 L 43.253906 56.3125 L 44.195312 56.3125 Z M 46.003906 59.941406 L 46.003906 60.886719 L 47.882812 60.886719 L 47.882812 59.941406 Z M 46.003906 58.855469 L 46.003906 58.128906 L 45.0625 58.128906 L 45.0625 60.015625 L 46.003906 60.015625 Z M 46.003906 58.855469 "/>
</g>
</svg>
