<svg width="24" height="24" viewBox="0 0 24 24" fill="none" xmlns="http://www.w3.org/2000/svg">
<path fill-rule="evenodd" clip-rule="evenodd" d="M8.471 17.265H9.255V19.879C9.255 20.477 9.805 20.999 10.431 20.999C11.059 20.999 11.608 20.477 11.608 19.879V17.265H13.176V19.879C13.176 20.477 13.725 20.999 14.352 20.999C14.98 20.999 15.529 20.477 15.529 19.879V17.265H16.313C16.783 17.265 17.097 16.966 17.097 16.518L17.096 8.831H7.688L7.687 16.518C7.687 16.966 8.001 17.265 8.471 17.265ZM6.008 8.633C5.471 8.633 5 9.197 5 9.843V15.488C5 16.134 5.47 16.698 6.008 16.698C6.546 16.698 7.016 16.134 7.016 15.488V9.842C7.016 9.197 6.546 8.632 6.008 8.632V8.633ZM17.772 9.843V15.488C17.772 16.134 18.242 16.698 18.78 16.698C19.318 16.698 19.788 16.134 19.788 15.488V9.842C19.788 9.197 19.318 8.632 18.78 8.632C18.242 8.632 17.772 9.197 17.772 9.842V9.843ZM16.156 3.654C16.1929 3.62116 16.2225 3.58089 16.2427 3.53582C16.2629 3.49074 16.2734 3.4419 16.2734 3.3925C16.2734 3.3431 16.2629 3.29426 16.2427 3.24918C16.2225 3.20411 16.1929 3.16384 16.156 3.131C16.0827 3.05911 15.9842 3.01885 15.8815 3.01885C15.7788 3.01885 15.6803 3.05911 15.607 3.131L14.431 4.251C13.881 3.878 13.176 3.729 12.391 3.729C11.608 3.729 10.902 3.879 10.275 4.177L9.177 3.057C8.97478 2.98205 8.75246 2.9817 8.55 3.056C8.47164 3.24763 8.47164 3.46237 8.55 3.654L9.569 4.626C8.471 5.448 7.687 6.718 7.687 8.184H17.097C17.0931 7.4745 16.9117 6.77726 16.5694 6.15581C16.227 5.53435 15.7346 5.00844 15.137 4.626L16.156 3.654ZM11.136 6.936H9.801V5.592H11.136V6.936ZM13.689 6.936V5.592H15.023V6.936H13.689Z" fill="white"/>
</svg>
