<svg width="24" height="24" viewBox="0 0 24 24" fill="none" xmlns="http://www.w3.org/2000/svg">
<path d="M21 12.033C21 7.043 16.972 3 12 3C7.028 3 3.00001 7.043 3.00001 12.033C2.99785 14.0458 3.66843 16.0017 4.90519 17.5898C6.14195 19.1778 7.87395 20.3071 9.82601 20.798V14.793H7.96801V12.033H9.82601V10.843C9.82601 7.769 11.212 6.346 14.218 6.346C14.786 6.346 15.773 6.458 16.172 6.57V9.07C15.826 9.0436 15.479 9.03258 15.132 9.037C13.656 9.037 13.087 9.597 13.087 11.057V12.033H16.028L15.524 14.793H13.091V21C17.548 20.458 21 16.65 21 12.033Z" fill="white"/>
</svg>
