<svg width="24" height="24" viewBox="0 0 24 24" fill="none" xmlns="http://www.w3.org/2000/svg">
<path fill-rule="evenodd" clip-rule="evenodd" d="M15.1173 3C15.1749 3.51985 15.1276 4.04598 14.9782 4.54722C14.8287 5.04845 14.5802 5.51459 14.2473 5.918C13.919 6.34551 13.499 6.694 13.0182 6.93783C12.5375 7.18166 12.0082 7.31465 11.4693 7.327C11.4104 6.81568 11.4602 6.2977 11.6153 5.80693C11.7704 5.31616 12.0273 4.86365 12.3693 4.479C13.067 3.65827 14.048 3.13025 15.1173 3Z" fill="white"/>
<path fill-rule="evenodd" clip-rule="evenodd" d="M18.2954 18.381C18.7484 17.691 19.1394 16.961 19.4654 16.203C18.7598 15.93 18.1462 15.4623 17.6959 14.8543C17.2457 14.2464 16.9772 13.5231 16.9216 12.7686C16.8661 12.0141 17.0259 11.2594 17.3824 10.5921C17.7388 9.92478 18.2774 9.37235 18.9354 8.999C18.5296 8.45783 18.0091 8.01312 17.4113 7.69674C16.8135 7.38036 16.153 7.20014 15.4774 7.169C14.7724 7.179 14.0764 7.329 13.4294 7.609C12.9964 7.829 12.5244 7.962 12.0404 7.999C11.504 7.96848 10.9768 7.84673 10.4814 7.639C9.88136 7.389 9.24136 7.251 8.59336 7.229C7.82665 7.26674 7.08103 7.49266 6.42232 7.8868C5.7636 8.28095 5.21205 8.83121 4.81636 9.489C3.50636 11.487 3.72636 15.294 5.81536 18.481C6.60536 19.681 7.62336 20.989 8.94236 20.989C9.40236 20.979 9.85236 20.866 10.2624 20.659C10.8189 20.3796 11.4331 20.234 12.0559 20.234C12.6786 20.234 13.2928 20.3796 13.8494 20.659C14.2444 20.876 14.6874 20.993 15.1384 20.999C16.4674 20.989 17.5364 19.54 18.2954 18.381Z" fill="white"/>
</svg>
