<svg width="24" height="24" viewBox="0 0 24 24" fill="none" xmlns="http://www.w3.org/2000/svg">
<path fill-rule="evenodd" clip-rule="evenodd" d="M19.814 5.715C20.674 5.948 21.353 6.63 21.581 7.495C22 9.065 22 12.341 22 12.341C22 12.341 22 15.617 21.58 17.187C21.4675 17.6124 21.245 18.0007 20.9348 18.3128C20.6246 18.6249 20.2377 18.8499 19.813 18.965C18.254 19.387 12 19.387 12 19.387C12 19.387 5.746 19.387 4.186 18.965C3.76125 18.8495 3.37428 18.6245 3.06383 18.3125C2.75337 18.0004 2.53032 17.6123 2.417 17.187C2 15.617 2 12.34 2 12.34C2 12.34 2 9.064 2.417 7.494C2.53066 7.06862 2.75379 6.68044 3.06417 6.36813C3.37454 6.05583 3.76133 5.83029 4.186 5.714C5.746 5.294 12 5.294 12 5.294C12 5.294 18.256 5.295 19.814 5.715ZM15.181 12.341L9.952 9.366V15.315L15.181 12.341Z" fill="white"/>
</svg>
