<svg width="100" height="90" viewBox="0 0 100 90" fill="none" xmlns="http://www.w3.org/2000/svg">
<g clip-path="url(#clip0_13831_1326)">
<path d="M19.4972 88.3H80.7148C80.8946 88.3 81.0671 88.3715 81.1942 88.4986C81.3213 88.6258 81.3928 88.7982 81.3928 88.978C81.3928 89.1578 81.3213 89.3303 81.1942 89.4574C81.0671 89.5845 80.8946 89.656 80.7148 89.656H19.4972C19.4081 89.656 19.32 89.6384 19.2377 89.6044C19.1555 89.5703 19.0807 89.5203 19.0178 89.4574C18.9548 89.3944 18.9049 89.3197 18.8708 89.2374C18.8368 89.1552 18.8192 89.067 18.8192 88.978C18.8192 88.889 18.8368 88.8008 18.8708 88.7186C18.9049 88.6363 18.9548 88.5616 19.0178 88.4986C19.0807 88.4357 19.1555 88.3857 19.2377 88.3517C19.32 88.3176 19.4081 88.3 19.4972 88.3Z" fill="url(#paint0_linear_13831_1326)"/>
<path d="M76.025 89.6462C75.7052 89.6486 75.3896 89.5732 75.1054 89.4263C74.8213 89.2795 74.5772 89.0656 74.3943 88.8033L48.4853 51.6806C48.2099 51.2501 48.1117 50.7296 48.2113 50.2283C48.311 49.727 48.6007 49.2837 49.0199 48.9912C49.4391 48.6987 49.9551 48.5798 50.46 48.6593C50.9649 48.7388 51.4195 49.0106 51.7285 49.4177L77.6466 86.5404C77.8554 86.8362 77.9787 87.1838 78.0029 87.545C78.027 87.9063 77.9512 88.2672 77.7836 88.5881C77.616 88.9091 77.3632 89.1776 77.053 89.3643C76.7427 89.5509 76.3871 89.6485 76.025 89.6462Z" fill="url(#paint1_linear_13831_1326)"/>
<path d="M24.1878 89.646C23.8258 89.6483 23.4701 89.5508 23.1598 89.3642C22.8496 89.1775 22.5968 88.909 22.4292 88.588C22.2617 88.2671 22.1858 87.9061 22.21 87.5449C22.2341 87.1836 22.3574 86.836 22.5662 86.5403L48.4843 49.4176C48.7933 49.0104 49.2479 48.7387 49.7528 48.6592C50.2577 48.5797 50.7738 48.6986 51.1929 48.9911C51.6121 49.2836 51.9019 49.7269 52.0015 50.2282C52.1012 50.7295 52.003 51.2499 51.7275 51.6805L25.8277 88.8032C25.6439 89.0668 25.3983 89.2814 25.1125 89.4283C24.8266 89.5753 24.5092 89.65 24.1878 89.646Z" fill="url(#paint2_linear_13831_1326)"/>
<path d="M33.1578 71.3331C34.9352 70.417 37.0698 72.6432 37.0698 72.6432L38.3799 70.8109H33.5793L33.1578 71.3331Z" fill="#51200F"/>
<path d="M67.0552 71.3329C65.2779 70.4168 63.1432 72.643 63.1432 72.643L61.8331 70.8107H66.6613L67.0552 71.3329Z" fill="#51200F"/>
<path d="M50.7661 0H50.7569C49.5982 0 48.6589 0.939308 48.6589 2.098V7.48501C48.6589 8.6437 49.5982 9.58301 50.7569 9.58301H50.7661C51.9248 9.58301 52.8641 8.6437 52.8641 7.48501V2.098C52.8641 0.939308 51.9248 0 50.7661 0Z" fill="url(#paint3_linear_13831_1326)"/>
<path d="M23.5561 3.89368H72.7904C73.5267 3.89368 74.2558 4.0387 74.9361 4.32047C75.6163 4.60225 76.2344 5.01525 76.7551 5.5359C77.2757 6.05654 77.6887 6.67464 77.9705 7.3549C78.2523 8.03516 78.3973 8.76425 78.3973 9.50056V68.3454H17.9309V9.50056C17.9309 8.01352 18.5216 6.58739 19.5731 5.5359C20.6246 4.4844 22.0508 3.89368 23.5378 3.89368H23.5561Z" fill="url(#paint4_linear_13831_1326)"/>
<path d="M25.2968 3.89387H74.522C76.009 3.89387 77.4352 4.48459 78.4867 5.53609C79.5381 6.58758 80.1289 8.01371 80.1289 9.50075V68.3455H19.6625V9.50075C19.6625 8.76213 19.8084 8.03078 20.0919 7.34872C20.3754 6.66667 20.7908 6.04734 21.3144 5.52634C21.838 5.00533 22.4593 4.5929 23.1427 4.31275C23.8262 4.0326 24.5582 3.89025 25.2968 3.89387Z" fill="#A18085"/>
<path d="M28.2197 62.3072H75.0078C73.8664 59.5226 73.2873 56.5397 73.3038 53.5304V53.1823L26.5156 53.0082V53.5304C26.4991 56.5397 27.0783 59.5226 28.2197 62.3072Z" fill="#7C666A"/>
<path d="M82.2641 68.345H17.9498V70.7636H82.2641V68.345Z" fill="url(#paint5_linear_13831_1326)"/>
<path d="M26.5159 68.345H17.9498V70.7636H26.5159V68.345Z" fill="url(#paint6_linear_13831_1326)"/>
<path d="M80.11 68.3365C80.8184 68.3365 81.3926 67.631 81.3926 66.7607C81.3926 65.8904 80.8184 65.1849 80.11 65.1849C79.4016 65.1849 78.8274 65.8904 78.8274 66.7607C78.8274 67.631 79.4016 68.3365 80.11 68.3365Z" fill="#FCCD81"/>
<path d="M68.9421 67.8868L67.5129 67.7036C67.2861 67.6808 67.076 67.5743 66.9235 67.4049C66.7711 67.2355 66.6872 67.0154 66.6884 66.7874C66.6872 66.5595 66.7711 66.3394 66.9235 66.17C67.076 66.0006 67.2861 65.8941 67.5129 65.8713L68.9421 65.6789" fill="#092622"/>
<path d="M70.6102 68.3272L68.6221 68.0707C68.3048 68.0285 68.0136 67.8723 67.8029 67.6312C67.5922 67.3902 67.4764 67.0807 67.4769 66.7606C67.4764 66.4404 67.5922 66.131 67.8029 65.89C68.0136 65.6489 68.3048 65.4927 68.6221 65.4505L70.6102 65.194" fill="url(#paint7_linear_13831_1326)"/>
<path d="M70.7928 65.1849C70.4352 65.2671 70.1161 65.4682 69.8875 65.7553C69.659 66.0423 69.5345 66.3984 69.5345 66.7653C69.5345 67.1322 69.659 67.4883 69.8875 67.7754C70.1161 68.0624 70.4352 68.2635 70.7928 68.3457H80.1101C79.7525 68.2635 79.4334 68.0624 79.2049 67.7754C78.9763 67.4883 78.8519 67.1322 78.8519 66.7653C78.8519 66.3984 78.9763 66.0423 79.2049 65.7553C79.4334 65.4682 79.7525 65.2671 80.1101 65.1849H70.7928Z" fill="url(#paint8_linear_13831_1326)"/>
<path d="M28.2194 60.1822H75.0076C73.8799 58.1077 73.2938 55.7822 73.3035 53.421V12.1939L26.5154 12.0656V53.421C26.5056 55.7822 27.0917 58.1077 28.2194 60.1822Z" fill="url(#paint9_linear_13831_1326)"/>
<path d="M70.9852 16.3998C71.6734 16.3998 72.2312 15.7641 72.2312 14.9798C72.2312 14.1955 71.6734 13.5598 70.9852 13.5598C70.2971 13.5598 69.7393 14.1955 69.7393 14.9798C69.7393 15.7641 70.2971 16.3998 70.9852 16.3998Z" fill="#C3D2C3"/>
<path d="M30.3353 16.3999C31.0235 16.3999 31.5813 15.7641 31.5813 14.9799C31.5813 14.1956 31.0235 13.5598 30.3353 13.5598C29.6472 13.5598 29.0894 14.1956 29.0894 14.9799C29.0894 15.7641 29.6472 16.3999 30.3353 16.3999Z" fill="#C3D2C3"/>
<path d="M30.043 16.1512C30.7311 16.1512 31.2889 15.5155 31.2889 14.7312C31.2889 13.9469 30.7311 13.3112 30.043 13.3112C29.3548 13.3112 28.797 13.9469 28.797 14.7312C28.797 15.5155 29.3548 16.1512 30.043 16.1512Z" fill="#14A800"/>
<path d="M29.7865 13.3022C29.4427 13.3501 29.1278 13.5206 28.8999 13.7825C28.672 14.0443 28.5465 14.3797 28.5465 14.7268C28.5465 15.0739 28.672 15.4093 28.8999 15.6712C29.1278 15.933 29.4427 16.1036 29.7865 16.1514H30.043C29.6992 16.1036 29.3844 15.933 29.1565 15.6712C28.9286 15.4093 28.803 15.0739 28.803 14.7268C28.803 14.3797 28.9286 14.0443 29.1565 13.7825C29.3844 13.5206 29.6992 13.3501 30.043 13.3022H29.7865Z" fill="url(#paint10_linear_13831_1326)"/>
<path d="M70.6923 16.1513C71.3804 16.1513 71.9382 15.5155 71.9382 14.7313C71.9382 13.947 71.3804 13.3112 70.6923 13.3112C70.0041 13.3112 69.4463 13.947 69.4463 14.7313C69.4463 15.5155 70.0041 16.1513 70.6923 16.1513Z" fill="#14A800"/>
<path d="M70.4263 13.3021C70.0825 13.35 69.7676 13.5206 69.5397 13.7824C69.3118 14.0442 69.1863 14.3796 69.1863 14.7267C69.1863 15.0739 69.3118 15.4093 69.5397 15.6711C69.7676 15.9329 70.0825 16.1035 70.4263 16.1514H70.7195C70.3757 16.1035 70.0608 15.9329 69.8329 15.6711C69.605 15.4093 69.4794 15.0739 69.4794 14.7267C69.4794 14.3796 69.605 14.0442 69.8329 13.7824C70.0608 13.5206 70.3757 13.35 70.7195 13.3021H70.4263Z" fill="url(#paint11_linear_13831_1326)"/>
<path d="M66.4961 20.558H59.8632V51.6799H66.4961V20.558Z" fill="url(#paint12_linear_13831_1326)"/>
<path d="M59.8542 25.69H53.2212V51.6814H59.8542V25.69Z" fill="url(#paint13_linear_13831_1326)"/>
<path d="M53.2216 30.8112H46.5886V51.6721H53.2216V30.8112Z" fill="url(#paint14_linear_13831_1326)"/>
<path d="M46.5884 35.9413H39.9554V51.6809H46.5884V35.9413Z" fill="url(#paint15_linear_13831_1326)"/>
<path d="M39.9552 41.0714H33.3223V51.6805H39.9552V41.0714Z" fill="url(#paint16_linear_13831_1326)"/>
</g>
<defs>
<linearGradient id="paint0_linear_13831_1326" x1="18.8192" y1="88.9688" x2="81.4019" y2="88.9688" gradientUnits="userSpaceOnUse">
<stop stop-color="#C3D2C3" stop-opacity="0"/>
<stop offset="0.01" stop-color="#C3D2C3" stop-opacity="0.05"/>
<stop offset="0.06" stop-color="#C3D2C3" stop-opacity="0.3"/>
<stop offset="0.12" stop-color="#C3D2C3" stop-opacity="0.51"/>
<stop offset="0.18" stop-color="#C3D2C3" stop-opacity="0.69"/>
<stop offset="0.23" stop-color="#C3D2C3" stop-opacity="0.83"/>
<stop offset="0.28" stop-color="#C3D2C3" stop-opacity="0.92"/>
<stop offset="0.34" stop-color="#C3D2C3" stop-opacity="0.98"/>
<stop offset="0.39" stop-color="#C3D2C3"/>
<stop offset="0.44" stop-color="#C3D2C3"/>
<stop offset="0.72" stop-color="#C3D2C3"/>
<stop offset="0.78" stop-color="#C3D2C3" stop-opacity="0.78"/>
<stop offset="0.93" stop-color="#C3D2C3" stop-opacity="0.23"/>
<stop offset="1" stop-color="#C3D2C3" stop-opacity="0.01"/>
</linearGradient>
<linearGradient id="paint1_linear_13831_1326" x1="58.334" y1="72.7614" x2="63.6294" y2="68.6753" gradientUnits="userSpaceOnUse">
<stop offset="0.56" stop-color="#6D2B11"/>
<stop offset="1" stop-color="#BC5118"/>
</linearGradient>
<linearGradient id="paint2_linear_13831_1326" x1="1609.67" y1="1819.09" x2="1817.67" y2="1712.99" gradientUnits="userSpaceOnUse">
<stop offset="0.56" stop-color="#6D2B11"/>
<stop offset="1" stop-color="#BC5118"/>
</linearGradient>
<linearGradient id="paint3_linear_13831_1326" x1="325.94" y1="-960.302" x2="359.539" y2="-960.302" gradientUnits="userSpaceOnUse">
<stop offset="0.56" stop-color="#6D2B11"/>
<stop offset="1" stop-color="#BC5118"/>
</linearGradient>
<linearGradient id="paint4_linear_13831_1326" x1="48.1733" y1="68.3362" x2="48.1733" y2="3.89368" gradientUnits="userSpaceOnUse">
<stop offset="0.09" stop-color="#7C666A"/>
<stop offset="0.38" stop-color="#896F74"/>
<stop offset="1" stop-color="#A18085"/>
</linearGradient>
<linearGradient id="paint5_linear_13831_1326" x1="-34.9583" y1="69.5451" x2="45.6544" y2="69.5451" gradientUnits="userSpaceOnUse">
<stop offset="0.56" stop-color="#BC5118"/>
<stop offset="1" stop-color="#6D2B11"/>
</linearGradient>
<linearGradient id="paint6_linear_13831_1326" x1="17.9498" y1="69.5451" x2="26.5159" y2="69.5451" gradientUnits="userSpaceOnUse">
<stop stop-color="#702C11"/>
<stop offset="0.13" stop-color="#6D2B11"/>
<stop offset="1" stop-color="#BC5118"/>
</linearGradient>
<linearGradient id="paint7_linear_13831_1326" x1="69.0436" y1="68.3181" x2="69.0436" y2="65.1848" gradientUnits="userSpaceOnUse">
<stop stop-color="#D5E0D5"/>
<stop offset="0.13" stop-color="#E4EBE4"/>
<stop offset="0.34" stop-color="#F8FAF8"/>
<stop offset="0.49" stop-color="white"/>
</linearGradient>
<linearGradient id="paint8_linear_13831_1326" x1="74.8147" y1="68.3365" x2="74.8147" y2="65.1758" gradientUnits="userSpaceOnUse">
<stop offset="0.29" stop-color="#EB9546"/>
<stop offset="0.34" stop-color="#EEA052"/>
<stop offset="0.46" stop-color="#F4B467"/>
<stop offset="0.59" stop-color="#F9C276"/>
<stop offset="0.75" stop-color="#FBCA7E"/>
<stop offset="1" stop-color="#FCCD81"/>
</linearGradient>
<linearGradient id="paint9_linear_13831_1326" x1="50.7661" y1="60.1822" x2="50.7661" y2="12.0473" gradientUnits="userSpaceOnUse">
<stop stop-color="#F2F7F2"/>
<stop offset="0.19" stop-color="#F8FBF8"/>
<stop offset="0.58" stop-color="white"/>
</linearGradient>
<linearGradient id="paint10_linear_13831_1326" x1="29.2918" y1="16.1423" x2="29.2918" y2="13.3022" gradientUnits="userSpaceOnUse">
<stop offset="0.68" stop-color="#126B00"/>
<stop offset="0.8" stop-color="#138000"/>
<stop offset="1" stop-color="#14A800"/>
</linearGradient>
<linearGradient id="paint11_linear_13831_1326" x1="213.52" y1="290.762" x2="213.52" y2="299.595" gradientUnits="userSpaceOnUse">
<stop offset="0.68" stop-color="#126B00"/>
<stop offset="0.8" stop-color="#138000"/>
<stop offset="1" stop-color="#14A800"/>
</linearGradient>
<linearGradient id="paint12_linear_13831_1326" x1="63.1796" y1="75.4634" x2="63.1796" y2="27.5208" gradientUnits="userSpaceOnUse">
<stop offset="0.29" stop-color="#126B00"/>
<stop offset="1" stop-color="#14A800"/>
</linearGradient>
<linearGradient id="paint13_linear_13831_1326" x1="56.5468" y1="51.6722" x2="56.5468" y2="25.6808" gradientUnits="userSpaceOnUse">
<stop offset="0.29" stop-color="#C3D2C3"/>
<stop offset="1" stop-color="#E4EBE4"/>
</linearGradient>
<linearGradient id="paint14_linear_13831_1326" x1="49.9143" y1="64.37" x2="49.9143" y2="30.5455" gradientUnits="userSpaceOnUse">
<stop offset="0.29" stop-color="#14A800"/>
<stop offset="1" stop-color="#95DF00"/>
</linearGradient>
<linearGradient id="paint15_linear_13831_1326" x1="43.2811" y1="57.9016" x2="43.2811" y2="32.8813" gradientUnits="userSpaceOnUse">
<stop offset="0.29" stop-color="#8D77AF"/>
<stop offset="1" stop-color="#BDA1E7"/>
</linearGradient>
<linearGradient id="paint16_linear_13831_1326" x1="36.6479" y1="61.2635" x2="36.6479" y2="44.7818" gradientUnits="userSpaceOnUse">
<stop offset="0.29" stop-color="#A06069"/>
<stop offset="1" stop-color="#F7B0B2"/>
</linearGradient>
<clipPath id="clip0_13831_1326">
<rect width="100" height="89.6552" fill="white"/>
</clipPath>
</defs>
</svg>
