<?xml version="1.0" encoding="UTF-8"?>
<svg xmlns="http://www.w3.org/2000/svg" width="133" height="40.246" viewBox="0 0 133 40.246">
  <g id="app-store-en" transform="translate(-686.5 -639.5)">
    <g id="Group_83367" data-name="Group 83367" transform="translate(687 640)">
      <path id="Path_25048" data-name="Path 25048" d="M25,19.889a5.146,5.146,0,0,1,2.451-4.318,5.268,5.268,0,0,0-4.15-2.244c-1.746-.183-3.439,1.045-4.329,1.045-.907,0-2.277-1.027-3.752-1a5.527,5.527,0,0,0-4.651,2.837c-2.011,3.482-.511,8.6,1.416,11.414.964,1.378,2.09,2.918,3.564,2.863,1.442-.06,1.981-.92,3.722-.92,1.725,0,2.23.92,3.734.885,1.548-.025,2.523-1.384,3.453-2.776a11.4,11.4,0,0,0,1.579-3.216A4.973,4.973,0,0,1,25,19.889Z" fill="#252e48"/>
      <path id="Path_25049" data-name="Path 25049" d="M22.156,11.477a5.067,5.067,0,0,0,1.159-3.63A5.155,5.155,0,0,0,19.98,9.573a4.821,4.821,0,0,0-1.189,3.5,4.263,4.263,0,0,0,3.365-1.6Z" fill="#252e48"/>
      <path id="Path_25050" data-name="Path 25050" d="M42.3,27.14H37.568L36.432,30.5h-2L38.91,18.078h2.083L45.477,30.5H43.438Zm-4.243-1.549h3.752l-1.85-5.447h-.052Z" fill="#252e48"/>
      <path id="Path_25051" data-name="Path 25051" d="M55.159,25.97c0,2.813-1.506,4.621-3.778,4.621a3.069,3.069,0,0,1-2.849-1.584h-.043v4.484H46.631V21.442h1.8v1.506h.034a3.212,3.212,0,0,1,2.883-1.6C53.645,21.348,55.159,23.164,55.159,25.97Zm-1.91,0c0-1.833-.947-3.038-2.393-3.038-1.42,0-2.375,1.23-2.375,3.038,0,1.824.955,3.046,2.375,3.046C52.3,29.016,53.249,27.816,53.249,25.97Z" fill="#252e48"/>
      <path id="Path_25052" data-name="Path 25052" d="M65.125,25.97c0,2.813-1.506,4.621-3.779,4.621A3.069,3.069,0,0,1,58.5,29.007h-.043v4.484H56.6V21.442h1.8v1.506h.034a3.212,3.212,0,0,1,2.883-1.6C63.609,21.348,65.125,23.164,65.125,25.97Zm-1.911,0c0-1.833-.947-3.038-2.393-3.038-1.42,0-2.375,1.23-2.375,3.038,0,1.824.955,3.046,2.375,3.046C62.266,29.016,63.214,27.816,63.214,25.97Z" fill="#252e48"/>
      <path id="Path_25053" data-name="Path 25053" d="M71.709,27.036c.138,1.231,1.334,2.04,2.969,2.04,1.566,0,2.693-.809,2.693-1.919,0-.964-.68-1.541-2.289-1.937l-1.609-.388c-2.28-.551-3.339-1.617-3.339-3.348,0-2.143,1.867-3.614,4.518-3.614,2.625,0,4.424,1.472,4.484,3.614H77.26c-.112-1.239-1.137-1.987-2.634-1.987s-2.521.757-2.521,1.858c0,.878.654,1.4,2.255,1.79l1.368.336c2.548.6,3.605,1.626,3.605,3.442,0,2.323-1.85,3.778-4.793,3.778-2.754,0-4.613-1.421-4.733-3.667Z" fill="#252e48"/>
      <path id="Path_25054" data-name="Path 25054" d="M83.346,19.3v2.143h1.722v1.472H83.346v4.991c0,.775.345,1.137,1.1,1.137A5.807,5.807,0,0,0,85.059,29v1.463a5.1,5.1,0,0,1-1.032.086c-1.833,0-2.548-.688-2.548-2.444V22.914H80.163V21.442h1.316V19.3Z" fill="#252e48"/>
      <path id="Path_25055" data-name="Path 25055" d="M86.064,25.97c0-2.849,1.678-4.639,4.294-4.639s4.295,1.79,4.295,4.639-1.661,4.639-4.295,4.639S86.064,28.826,86.064,25.97Zm6.7,0c0-1.954-.9-3.107-2.4-3.107s-2.4,1.162-2.4,3.107c0,1.962.9,3.106,2.4,3.106s2.4-1.145,2.4-3.106Z" fill="#252e48"/>
      <path id="Path_25056" data-name="Path 25056" d="M96.185,21.442h1.772v1.541H98a2.159,2.159,0,0,1,2.178-1.636,2.866,2.866,0,0,1,.637.069v1.738a2.6,2.6,0,0,0-.835-.112,1.873,1.873,0,0,0-1.937,2.083V30.5H96.185Z" fill="#252e48"/>
      <path id="Path_25057" data-name="Path 25057" d="M109.383,27.837c-.25,1.644-1.851,2.771-3.9,2.771-2.634,0-4.269-1.765-4.269-4.6s1.644-4.682,4.19-4.682c2.5,0,4.08,1.721,4.08,4.466v.637h-6.395v.112a2.358,2.358,0,0,0,2.436,2.564,2.048,2.048,0,0,0,2.091-1.273Zm-6.282-2.7h4.526a2.177,2.177,0,0,0-2.221-2.3,2.292,2.292,0,0,0-2.306,2.3Z" fill="#252e48"/>
    </g>
    <g id="Group_83368" data-name="Group 83368" transform="translate(688 638.563)">
      <path id="Path_25058" data-name="Path 25058" d="M37.826,8.731A2.64,2.64,0,0,1,40.634,11.7c0,1.906-1.03,3-2.808,3H35.671V8.731ZM36.6,13.854h1.125a1.876,1.876,0,0,0,1.968-2.146,1.881,1.881,0,0,0-1.968-2.134H36.6Z" fill="#252e48"/>
      <path id="Path_25059" data-name="Path 25059" d="M41.681,12.444a2.133,2.133,0,1,1,4.247,0,2.134,2.134,0,1,1-4.247,0Zm3.333,0c0-.976-.438-1.547-1.208-1.547s-1.207.571-1.207,1.547.435,1.55,1.207,1.55S45.014,13.424,45.014,12.444Z" fill="#252e48"/>
      <path id="Path_25060" data-name="Path 25060" d="M51.573,14.7h-.922l-.931-3.316h-.07L48.724,14.7h-.913L46.57,10.2h.9l.807,3.436h.066l.926-3.436h.853l.926,3.436h.07l.8-3.436h.889Z" fill="#252e48"/>
      <path id="Path_25061" data-name="Path 25061" d="M53.854,10.195h.855v.715h.066a1.348,1.348,0,0,1,1.344-.8,1.465,1.465,0,0,1,1.559,1.675V14.7h-.889V12.006c0-.724-.314-1.083-.972-1.083a1.033,1.033,0,0,0-1.075,1.141V14.7h-.889Z" fill="#252e48"/>
      <path id="Path_25062" data-name="Path 25062" d="M59.094,8.437h.889V14.7h-.889Z" fill="#252e48"/>
      <path id="Path_25063" data-name="Path 25063" d="M61.218,12.444a2.133,2.133,0,1,1,4.248,0,2.134,2.134,0,1,1-4.248,0Zm3.333,0c0-.976-.438-1.547-1.208-1.547s-1.207.571-1.207,1.547.435,1.55,1.207,1.55S64.551,13.424,64.551,12.444Z" fill="#252e48"/>
      <path id="Path_25064" data-name="Path 25064" d="M66.4,13.424c0-.811.6-1.278,1.675-1.344l1.22-.07v-.389c0-.476-.314-.744-.922-.744-.5,0-.84.182-.938.5h-.86c.091-.773.818-1.27,1.84-1.27,1.129,0,1.766.562,1.766,1.513V14.7h-.855v-.633h-.07a1.515,1.515,0,0,1-1.353.707,1.36,1.36,0,0,1-1.5-1.348Zm2.9-.384v-.376l-1.1.07c-.62.042-.9.252-.9.649s.352.641.835.641A1.061,1.061,0,0,0,69.3,13.04Z" fill="#252e48"/>
      <path id="Path_25065" data-name="Path 25065" d="M71.348,12.444c0-1.423.731-2.324,1.869-2.324a1.484,1.484,0,0,1,1.381.79h.066V8.437h.889V14.7H74.7v-.711h-.07a1.563,1.563,0,0,1-1.414.786C72.072,14.772,71.348,13.871,71.348,12.444Zm.918,0c0,.955.45,1.53,1.2,1.53s1.212-.583,1.212-1.526-.468-1.53-1.212-1.53S72.266,11.5,72.266,12.444Z" fill="#252e48"/>
      <path id="Path_25066" data-name="Path 25066" d="M79.23,12.444a2.133,2.133,0,1,1,4.247,0,2.134,2.134,0,1,1-4.247,0Zm3.333,0c0-.976-.438-1.547-1.208-1.547s-1.207.571-1.207,1.547.435,1.55,1.207,1.55S82.563,13.424,82.563,12.444Z" fill="#252e48"/>
      <path id="Path_25067" data-name="Path 25067" d="M84.669,10.195h.855v.715h.066a1.348,1.348,0,0,1,1.344-.8,1.465,1.465,0,0,1,1.559,1.675V14.7H87.6V12.006c0-.724-.314-1.083-.972-1.083a1.033,1.033,0,0,0-1.075,1.141V14.7h-.889Z" fill="#252e48"/>
      <path id="Path_25068" data-name="Path 25068" d="M93.515,9.074v1.142h.976v.749h-.976V13.28c0,.472.194.678.637.678a2.966,2.966,0,0,0,.339-.021v.74a2.915,2.915,0,0,1-.483.045c-.988,0-1.382-.348-1.382-1.216V10.964h-.715v-.749h.715V9.074Z" fill="#252e48"/>
      <path id="Path_25069" data-name="Path 25069" d="M95.7,8.437h.881v2.481h.07a1.386,1.386,0,0,1,1.373-.807,1.483,1.483,0,0,1,1.551,1.679V14.7h-.89V12.01c0-.719-.335-1.083-.963-1.083a1.052,1.052,0,0,0-1.134,1.142V14.7H95.7Z" fill="#252e48"/>
      <path id="Path_25070" data-name="Path 25070" d="M104.761,13.482a1.828,1.828,0,0,1-1.951,1.3,2.045,2.045,0,0,1-2.08-2.324,2.077,2.077,0,0,1,2.076-2.353c1.253,0,2.009.856,2.009,2.27v.31h-3.18v.05a1.19,1.19,0,0,0,1.2,1.29,1.079,1.079,0,0,0,1.071-.546Zm-3.126-1.451h2.274a1.086,1.086,0,0,0-1.108-1.167,1.152,1.152,0,0,0-1.166,1.167Z" fill="#252e48"/>
    </g>
    <path id="Path_25071" data-name="Path 25071" d="M127.109,39.246H4.891A4.912,4.912,0,0,1,0,34.34V4.906A4.905,4.905,0,0,1,4.892,0H127.109A4.907,4.907,0,0,1,132,4.906V34.34a4.913,4.913,0,0,1-4.891,4.906Z" transform="translate(687 640)" fill="none" stroke="#252e48" stroke-width="1"/>
  </g>
</svg>
