<?xml version="1.0" encoding="UTF-8"?>
<svg xmlns="http://www.w3.org/2000/svg" width="133" height="40.246" viewBox="0 0 133 40.246">
  <g id="google-play-en" transform="translate(-161.5 -48.5)">
    <path id="Path_25072" data-name="Path 25072" d="M127.109,39.246H4.891A4.912,4.912,0,0,1,0,34.34V4.906A4.905,4.905,0,0,1,4.892,0H127.109A4.907,4.907,0,0,1,132,4.906V34.34a4.913,4.913,0,0,1-4.891,4.906Z" transform="translate(162 49)" fill="none" stroke="#252e48" stroke-width="1"/>
    <path id="Path_25073" data-name="Path 25073" d="M1683.888,277.644a2.986,2.986,0,0,1-2.229-.922,3.142,3.142,0,0,1-.9-2.251,3.072,3.072,0,0,1,.9-2.249,2.977,2.977,0,0,1,2.227-.922,3.017,3.017,0,0,1,2.229.922,3.258,3.258,0,0,1,0,4.5,2.961,2.961,0,0,1-2.227.922Zm-26.427,0a3.1,3.1,0,0,1-2.239-.91,3.171,3.171,0,0,1,2.239-5.432,3.12,3.12,0,0,1,1.25.259,2.531,2.531,0,0,1,.952.68l.059.071-.663.651-.068-.081a1.885,1.885,0,0,0-1.539-.663,2.127,2.127,0,0,0-1.534.626,2.379,2.379,0,0,0,0,3.259,2.243,2.243,0,0,0,3.11,0,1.7,1.7,0,0,0,.45-1.02h-2.126v-.915h3.039l.012.083a3.358,3.358,0,0,1,.044.46,2.756,2.756,0,0,1-.759,2.031,2.96,2.96,0,0,1-2.227.9Zm35.138-.13h-.937l-2.87-4.593.024.827v3.763h-.937v-6.08h1.069l.029.047,2.7,4.326-.024-.825v-3.548h.947Zm-15.752,0h-.949v-5.168h-1.647v-.915h4.24v.915h-1.647v5.168Zm-3.369,0h-.947v-6.083h.947Zm-5.322,0h-.947v-5.168h-1.647v-.915h4.24v.915h-1.647Zm-3.193-.01h-3.631v-6.073h3.631v.915h-2.682v1.669h2.42v.9h-2.42v1.669h2.682Zm17.391-1.412a2.1,2.1,0,0,0,1.534.636,2.042,2.042,0,0,0,1.534-.636,2.411,2.411,0,0,0,0-3.24,2.1,2.1,0,0,0-1.534-.636,2.033,2.033,0,0,0-1.532.636,2.415,2.415,0,0,0,0,3.24Z" transform="translate(-1451.824 -215.662)" fill="#252e48"/>
    <path id="Path_25074" data-name="Path 25074" d="M1673.257,687.634a4.174,4.174,0,1,0,4.186,4.174,4.109,4.109,0,0,0-4.186-4.174Zm0,6.694a2.536,2.536,0,1,1,2.354-2.53,2.415,2.415,0,0,1-2.354,2.53Zm-9.134-6.694a4.174,4.174,0,1,0,4.186,4.174,4.109,4.109,0,0,0-4.186-4.174Zm0,6.694a2.536,2.536,0,1,1,2.354-2.53,2.415,2.415,0,0,1-2.354,2.53Zm-10.868-5.419v1.767h4.24a3.725,3.725,0,0,1-.959,2.224,4.327,4.327,0,0,1-3.271,1.3,4.71,4.71,0,0,1,0-9.42,4.527,4.527,0,0,1,3.193,1.265l1.253-1.253a6.161,6.161,0,0,0-4.436-1.789,6.477,6.477,0,1,0,0,12.954,5.929,5.929,0,0,0,4.524-1.82,5.862,5.862,0,0,0,1.537-4.142,5.461,5.461,0,0,0-.1-1.1h-5.985l0,.015Zm44.455,1.375a3.879,3.879,0,0,0-3.575-2.66,3.966,3.966,0,0,0-3.934,4.174,4.08,4.08,0,0,0,4.142,4.174,4.143,4.143,0,0,0,3.477-1.852l-1.417-.949a2.374,2.374,0,0,1-2.05,1.155,2.132,2.132,0,0,1-2.028-1.265l5.581-2.312-.2-.465Zm-5.691,1.4a2.291,2.291,0,0,1,2.18-2.432,1.609,1.609,0,0,1,1.549.883Zm-4.534,4.044h1.833V683.46h-1.833Zm-3.009-7.162h-.066a2.891,2.891,0,0,0-2.2-.937,4.174,4.174,0,0,0,0,8.341,2.883,2.883,0,0,0,2.2-.949h.066v.6c0,1.593-.851,2.452-2.224,2.452a2.314,2.314,0,0,1-2.1-1.483l-1.593.666a3.984,3.984,0,0,0,3.695,2.464c2.148,0,3.969-1.265,3.969-4.35v-7.489h-1.732v.688Zm-2.1,5.767a2.538,2.538,0,0,1,0-5.057,2.346,2.346,0,0,1,2.224,2.54,2.317,2.317,0,0,1-2.229,2.517Zm23.919-10.868h-4.382v12.263h1.833v-4.644h2.552a3.815,3.815,0,1,0,0-7.619Zm.054,5.906h-2.606v-4.208h2.606a2.1,2.1,0,0,1,0,4.208Zm11.316-1.754a3.451,3.451,0,0,0-3.271,1.874l1.625.675a1.742,1.742,0,0,1,1.669-.905,1.77,1.77,0,0,1,1.93,1.581v.13a4.1,4.1,0,0,0-1.908-.47c-1.754,0-3.533.959-3.533,2.757a2.834,2.834,0,0,0,3.041,2.7,2.579,2.579,0,0,0,2.332-1.2h.066v.949h1.767V691c-.006-2.18-1.631-3.391-3.723-3.391Zm-.23,6.716c-.6,0-1.439-.294-1.439-1.047,0-.949,1.047-1.309,1.94-1.309a3.18,3.18,0,0,1,1.669.414,2.206,2.206,0,0,1-2.175,1.942Zm10.391-6.454-2.1,5.319h-.066l-2.18-5.319h-1.98l3.271,7.436-1.864,4.133h1.908l5.033-11.568Zm-16.5,7.849h1.833V683.46h-1.833Z" transform="translate(-1444.409 -616.289)" fill="#252e48"/>
    <g id="Group_83369" data-name="Group 83369" transform="translate(497.566 228.575)">
      <path id="Path_25075" data-name="Path 25075" d="M-325.578-170.221l12.374,12.382-12.289,12.28a1.941,1.941,0,0,1-.452-1.437v-20.21a15.981,15.981,0,0,1,.015-1.675A9.11,9.11,0,0,1-325.578-170.221Z" transform="translate(0 -2.114)" fill="#252e48"/>
      <path id="Path_25076" data-name="Path 25076" d="M-296.5-37.031l3.391,3.357-15.151,8.5-.028-.082Z" transform="translate(-15.924 -122.164)" fill="#252e48"/>
      <path id="Path_25077" data-name="Path 25077" d="M-308.01-172.566l15.1,8.471-3.362,3.359-11.757-11.751Z" transform="translate(-16.162)" fill="#252e48"/>
      <path id="Path_25078" data-name="Path 25078" d="M-178.058-73.771l-3.563-3.57,3.655-3.628c1.412.795,2.96,1.62,4.459,2.525a1.131,1.131,0,0,1,.714,1.065,1.131,1.131,0,0,1-.74,1.048C-175.023-75.439-176.554-74.617-178.058-73.771Z" transform="translate(-130.097 -82.561)" fill="#252e48"/>
    </g>
  </g>
</svg>
