<svg xmlns="http://www.w3.org/2000/svg" xmlns:xlink="http://www.w3.org/1999/xlink" width="180" height="180" viewBox="0 0 180 180">
  <defs>
    <clipPath id="clip-path">
      <rect id="Rectangle_21864" data-name="Rectangle 21864" width="180" height="180" transform="translate(550 4027)" fill="none"/>
    </clipPath>
    <radialGradient id="radial-gradient" cx="0.732" cy="-0.099" r="0.783" gradientUnits="objectBoundingBox">
      <stop offset="0" stop-color="#eaccf7"/>
      <stop offset="0.478" stop-color="#90c4ea"/>
      <stop offset="1" stop-color="#3686e9"/>
    </radialGradient>
    <filter id="Message">
      <feOffset dx="3" dy="3" input="SourceAlpha"/>
      <feGaussianBlur stdDeviation="3" result="blur"/>
      <feFlood flood-color="#fff" flood-opacity="0.655" result="color"/>
      <feComposite operator="out" in="SourceGraphic" in2="blur"/>
      <feComposite operator="in" in="color"/>
      <feComposite operator="in" in2="SourceGraphic"/>
    </filter>
    <linearGradient id="linear-gradient" x1="0.5" x2="0.5" y2="1" gradientUnits="objectBoundingBox">
      <stop offset="0" stop-color="#f06685"/>
      <stop offset="1" stop-color="#f560b6"/>
    </linearGradient>
    <filter id="Ellipse_3152_-_Outline" x="13" y="120.361" width="67.641" height="67.64" filterUnits="userSpaceOnUse">
      <feOffset dy="6" input="SourceAlpha"/>
      <feGaussianBlur stdDeviation="2" result="blur-2"/>
      <feFlood flood-color="#ff4c75" flood-opacity="0.231"/>
      <feComposite operator="in" in2="blur-2"/>
      <feComposite in="SourceGraphic"/>
    </filter>
    <filter id="Ellipse_3152_-_Outline-2" x="13" y="120.361" width="67.641" height="67.64" filterUnits="userSpaceOnUse">
      <feOffset dx="2" dy="2" input="SourceAlpha"/>
      <feGaussianBlur stdDeviation="1.5" result="blur-3"/>
      <feFlood flood-color="#fff" flood-opacity="0.502" result="color-2"/>
      <feComposite operator="out" in="SourceGraphic" in2="blur-3"/>
      <feComposite operator="in" in="color-2"/>
      <feComposite operator="in" in2="SourceGraphic"/>
    </filter>
    <radialGradient id="radial-gradient-2" cx="0.73" cy="0.272" r="0.856" gradientUnits="objectBoundingBox">
      <stop offset="0" stop-color="#f5c0df"/>
      <stop offset="0.433" stop-color="#f560b6"/>
      <stop offset="1" stop-color="#ff4c75"/>
    </radialGradient>
  </defs>
  <g id="Email" transform="translate(-550 -4027)" clip-path="url(#clip-path)">
    <g id="Email-2" data-name="Email" transform="translate(-347.713 -81.687)">
      <g id="Group_83271" data-name="Group 83271" transform="translate(930.154 4136.869)">
        <rect id="Rectangle_21101" data-name="Rectangle 21101" width="120.562" height="61" transform="translate(10.558 27.251)" fill="#eef5ff"/>
        <g id="Iconly_Bold_Message" data-name="Iconly/Bold/Message" transform="translate(0 0)">
          <g id="Message-2" data-name="Message" transform="translate(0 0)">
            <g data-type="innerShadowGroup">
              <path id="Message-3" data-name="Message" d="M104.432,126H35.37A35.4,35.4,0,0,1,0,90.651v-55.3A35.4,35.4,0,0,1,35.371,0h69.061a35.566,35.566,0,0,1,25.027,10.37,35.106,35.106,0,0,1,10.349,24.979v55.3A35.4,35.4,0,0,1,104.432,126ZM28.2,36.719a5.121,5.121,0,0,0-3.736,1.573,5.353,5.353,0,0,0-.5,7l.919.907,31.8,24.853a21.854,21.854,0,0,0,13.634,4.756,22.208,22.208,0,0,0,13.69-4.757l31.539-25.269.56-.561a5.424,5.424,0,0,0-.082-7A5.808,5.808,0,0,0,112.34,36.4q-.148-.008-.295-.008a5.306,5.306,0,0,0-3.631,1.406L76.894,63a10.931,10.931,0,0,1-6.966,2.523A11.121,11.121,0,0,1,62.914,63L31.457,37.8A5.432,5.432,0,0,0,28.2,36.719Z" transform="translate(0 0)" fill="url(#radial-gradient)"/>
              <g transform="matrix(1, 0, 0, 1, -32.44, -28.18)" filter="url(#Message)">
                <path id="Message-4" data-name="Message" d="M104.432,126H35.37A35.4,35.4,0,0,1,0,90.651v-55.3A35.4,35.4,0,0,1,35.371,0h69.061a35.566,35.566,0,0,1,25.027,10.37,35.106,35.106,0,0,1,10.349,24.979v55.3A35.4,35.4,0,0,1,104.432,126ZM28.2,36.719a5.121,5.121,0,0,0-3.736,1.573,5.353,5.353,0,0,0-.5,7l.919.907,31.8,24.853a21.854,21.854,0,0,0,13.634,4.756,22.208,22.208,0,0,0,13.69-4.757l31.539-25.269.56-.561a5.424,5.424,0,0,0-.082-7A5.808,5.808,0,0,0,112.34,36.4q-.148-.008-.295-.008a5.306,5.306,0,0,0-3.631,1.406L76.894,63a10.931,10.931,0,0,1-6.966,2.523A11.121,11.121,0,0,1,62.914,63L31.457,37.8A5.432,5.432,0,0,0,28.2,36.719Z" transform="translate(32.44 28.18)" fill="#fff"/>
              </g>
            </g>
          </g>
        </g>
      </g>
      <g data-type="innerShadowGroup">
        <g transform="matrix(1, 0, 0, 1, 897.71, 4108.69)" filter="url(#Ellipse_3152_-_Outline)">
          <path id="Ellipse_3152_-_Outline-3" data-name="Ellipse 3152 - Outline" d="M19.719,5.916a13.651,13.651,0,0,0-13.492,13.8,13.651,13.651,0,0,0,13.492,13.8,13.651,13.651,0,0,0,13.492-13.8,13.651,13.651,0,0,0-13.492-13.8m0-5.916A19.721,19.721,0,1,1,0,19.721,19.742,19.742,0,0,1,19.719,0Z" transform="matrix(0.66, 0.75, -0.75, 0.66, 48.77, 120.36)" fill="url(#linear-gradient)"/>
        </g>
        <g transform="matrix(1, 0, 0, 1, 897.71, 4108.69)" filter="url(#Ellipse_3152_-_Outline-2)">
          <path id="Ellipse_3152_-_Outline-4" data-name="Ellipse 3152 - Outline" d="M19.719,5.916a13.651,13.651,0,0,0-13.492,13.8,13.651,13.651,0,0,0,13.492,13.8,13.651,13.651,0,0,0,13.492-13.8,13.651,13.651,0,0,0-13.492-13.8m0-5.916A19.721,19.721,0,1,1,0,19.721,19.742,19.742,0,0,1,19.719,0Z" transform="matrix(0.66, 0.75, -0.75, 0.66, 48.77, 120.36)" fill="#fff"/>
        </g>
      </g>
      <circle id="Ellipse_3151" data-name="Ellipse 3151" cx="12" cy="12" r="12" transform="translate(905.713 4111.688)" fill="url(#radial-gradient-2)"/>
    </g>
  </g>
</svg>
