<svg xmlns="http://www.w3.org/2000/svg" xmlns:xlink="http://www.w3.org/1999/xlink" width="240" height="280" viewBox="0 0 240 280">
  <defs>
    <clipPath id="clip-path">
      <rect id="Rectangle_21863" data-name="Rectangle 21863" width="240" height="280" transform="translate(166 3948)" fill="#fff" stroke="#707070" stroke-width="1"/>
    </clipPath>
    <linearGradient id="linear-gradient" x1="0.5" y1="1" x2="0.5" gradientUnits="objectBoundingBox">
      <stop offset="0" stop-color="#f06685"/>
      <stop offset="1" stop-color="#f560b6"/>
    </linearGradient>
    <filter id="Subtraction_7">
      <feOffset dx="-3" dy="-3" input="SourceAlpha"/>
      <feGaussianBlur stdDeviation="3" result="blur"/>
      <feFlood flood-color="#fff" flood-opacity="0.435" result="color"/>
      <feComposite operator="out" in="SourceGraphic" in2="blur"/>
      <feComposite operator="in" in="color"/>
      <feComposite operator="in" in2="SourceGraphic"/>
    </filter>
    <filter id="Ellipse_3147">
      <feOffset dy="3" input="SourceAlpha"/>
      <feGaussianBlur stdDeviation="3" result="blur-2"/>
      <feFlood flood-color="#fff" flood-opacity="0.765" result="color-2"/>
      <feComposite operator="out" in="SourceGraphic" in2="blur-2"/>
      <feComposite operator="in" in="color-2"/>
      <feComposite operator="in" in2="SourceGraphic"/>
    </filter>
    <linearGradient id="linear-gradient-2" x1="0.5" x2="0.5" y2="1" gradientUnits="objectBoundingBox">
      <stop offset="0" stop-color="#fff"/>
      <stop offset="1" stop-color="#eef5ff"/>
    </linearGradient>
    <filter id="Path_25004" x="27.98" y="156.333" width="128.883" height="77.931" filterUnits="userSpaceOnUse">
      <feOffset dy="3" input="SourceAlpha"/>
      <feGaussianBlur stdDeviation="3" result="blur-3"/>
      <feFlood flood-color="#cc368d"/>
      <feComposite operator="in" in2="blur-3"/>
      <feComposite in="SourceGraphic"/>
    </filter>
    <filter id="Path_25004-2" x="27.98" y="156.333" width="128.883" height="77.931" filterUnits="userSpaceOnUse">
      <feOffset dy="3" input="SourceAlpha"/>
      <feGaussianBlur stdDeviation="3" result="blur-4"/>
      <feFlood flood-color="#ffe2f3" result="color-3"/>
      <feComposite operator="out" in="SourceGraphic" in2="blur-4"/>
      <feComposite operator="in" in="color-3"/>
      <feComposite operator="in" in2="SourceGraphic"/>
    </filter>
    <radialGradient id="radial-gradient" cx="0.351" cy="0.294" r="0.526" gradientUnits="objectBoundingBox">
      <stop offset="0" stop-color="#f3e2fa"/>
      <stop offset="0.478" stop-color="#90c4ea"/>
      <stop offset="1" stop-color="#3686e9"/>
    </radialGradient>
    <filter id="Path_25002" x="82.885" y="5" width="67.398" height="138.533" filterUnits="userSpaceOnUse">
      <feOffset dx="3" dy="3" input="SourceAlpha"/>
      <feGaussianBlur stdDeviation="3" result="blur-5"/>
      <feFlood flood-color="#e1d3f7" result="color-4"/>
      <feComposite operator="out" in="SourceGraphic" in2="blur-5"/>
      <feComposite operator="in" in="color-4"/>
      <feComposite operator="in" in2="SourceGraphic"/>
    </filter>
    <radialGradient id="radial-gradient-2" cx="0.351" cy="0.706" r="0.526" xlink:href="#radial-gradient"/>
    <filter id="Path_25005" x="130.837" y="88.869" width="102.106" height="72.476" filterUnits="userSpaceOnUse">
      <feOffset dx="3" dy="3" input="SourceAlpha"/>
      <feGaussianBlur stdDeviation="3" result="blur-6"/>
      <feFlood flood-color="#e1d3f7" result="color-5"/>
      <feComposite operator="out" in="SourceGraphic" in2="blur-6"/>
      <feComposite operator="in" in="color-5"/>
      <feComposite operator="in" in2="SourceGraphic"/>
    </filter>
  </defs>
  <g id="juicy_email" transform="translate(-166 -3948)" clip-path="url(#clip-path)">
    <g id="juicy_email-2" data-name="juicy_email" transform="translate(40.722 -1258.811)">
      <g id="Group_83263" data-name="Group 83263" transform="translate(164.407 5546.518) rotate(-115)">
        <g data-type="innerShadowGroup">
          <path id="Subtraction_7-2" data-name="Subtraction 7" d="M154.788,0H0A76.91,76.91,0,0,0,6.082,30.126a77.136,77.136,0,0,0,16.586,24.6,77.136,77.136,0,0,0,24.6,16.586,77.649,77.649,0,0,0,60.251,0,77.136,77.136,0,0,0,24.6-16.586,77.138,77.138,0,0,0,16.586-24.6A76.912,76.912,0,0,0,154.788,0Z" transform="matrix(-0.809, 0.588, -0.588, -0.809, 170.718, 62.614)" fill="url(#linear-gradient)"/>
          <g transform="matrix(-0.42, 0.91, -0.91, -0.42, 324.42, 108.1)" filter="url(#Subtraction_7)">
            <path id="Subtraction_7-3" data-name="Subtraction 7" d="M154.788,0H0A76.91,76.91,0,0,0,6.082,30.126a77.136,77.136,0,0,0,16.586,24.6,77.136,77.136,0,0,0,24.6,16.586,77.649,77.649,0,0,0,60.251,0,77.136,77.136,0,0,0,24.6-16.586,77.138,77.138,0,0,0,16.586-24.6A76.912,76.912,0,0,0,154.788,0Z" transform="translate(23.73 158.52) rotate(29)" fill="#fff"/>
          </g>
        </g>
        <g data-type="innerShadowGroup">
          <ellipse id="Ellipse_3147-2" data-name="Ellipse 3147" cx="77.394" cy="42.191" rx="77.394" ry="42.191" transform="matrix(-0.809, 0.588, -0.588, -0.809, 195.516, 96.747)" fill="#f690cc"/>
          <g transform="matrix(-0.42, 0.91, -0.91, -0.42, 324.42, 108.1)" filter="url(#Ellipse_3147)">
            <ellipse id="Ellipse_3147-3" data-name="Ellipse 3147" cx="77.394" cy="42.191" rx="77.394" ry="42.191" transform="translate(44.18 121.62) rotate(29)" fill="#fff"/>
          </g>
        </g>
        <g data-type="innerShadowGroup">
          <g transform="matrix(-0.42, 0.91, -0.91, -0.42, 324.42, 108.1)" filter="url(#Path_25004)">
            <path id="Path_25004-3" data-name="Path 25004" d="M98.189,71.756a41.107,41.107,0,0,0,4.674-13.035,15.845,15.845,0,0,0-1.229-9.732,12.117,12.117,0,0,0-6.892-5.754,27.393,27.393,0,0,0-12.27-1.008,56.07,56.07,0,0,0-15.327,4.087,72.7,72.7,0,0,0-14.92,8.478A75.957,75.957,0,0,0,39.309,66.778a65.005,65.005,0,0,0-9.388,14.431c-.651,1.39-1.237,2.807-1.74,4.21a40.985,40.985,0,0,0-1.246,4.113,27.465,27.465,0,0,0-.665,3.77,14.437,14.437,0,0,0,0,3.192L34.5,93.2a16.319,16.319,0,0,1,.028-3.07,23.6,23.6,0,0,1,.571-3.277,31.809,31.809,0,0,1,1.033-3.373c.413-1.129.889-2.254,1.413-3.355A49.726,49.726,0,0,1,44.76,69.148a57.627,57.627,0,0,1,9.919-9.1,56.5,56.5,0,0,1,11.576-6.478A46.39,46.39,0,0,1,78.4,50.35a23.076,23.076,0,0,1,9.822.632,9.7,9.7,0,0,1,5.61,4.3A11.656,11.656,0,0,1,95,62.689a30.293,30.293,0,0,1-3.48,10.017,55.287,55.287,0,0,1-7.046,10.306,58.459,58.459,0,0,1-8.983,8.435A54.224,54.224,0,0,1,65.2,97.607a44.242,44.242,0,0,1-11.012,3.406,41.179,41.179,0,0,1-5.4.586,11.4,11.4,0,0,1-3.45-.314,2.239,2.239,0,0,1-1.565-1.153,2.337,2.337,0,0,1,.246-1.924,5.944,5.944,0,0,1,.861-1.292,6.59,6.59,0,0,1,1.309-1.142,8.6,8.6,0,0,1,1.821-.912,12.622,12.622,0,0,1,2.392-.6l23.7-3.739,4.628-8.937-4.251.635a32.315,32.315,0,0,0,3.084-2.3,30.06,30.06,0,0,0,2.725-2.609A28.556,28.556,0,0,0,82.629,74.4a27.86,27.86,0,0,0,1.944-3.2,15.667,15.667,0,0,0,1.887-6.013,6.886,6.886,0,0,0-1.137-4.568,7.271,7.271,0,0,0-4.113-2.674,18.077,18.077,0,0,0-7.037-.3A33.734,33.734,0,0,0,65.7,59.9a40.262,40.262,0,0,0-7.864,4.286,38.4,38.4,0,0,0-6.53,5.73,28.4,28.4,0,0,0-4.5,6.557,19.32,19.32,0,0,0-1.412,3.775,9.012,9.012,0,0,0-.272,3.05,5.073,5.073,0,0,0,.811,2.339,5.226,5.226,0,0,0,1.835,1.643,23.106,23.106,0,0,0-3.561,1.84,21.51,21.51,0,0,0-3.082,2.364,20.479,20.479,0,0,0-2.547,2.83,20.042,20.042,0,0,0-1.96,3.235,10.388,10.388,0,0,0-1.27,5.355,4.74,4.74,0,0,0,2.079,3.566,10.637,10.637,0,0,0,5.285,1.589,34.417,34.417,0,0,0,8.342-.555,55.5,55.5,0,0,0,13.7-4.335,70.723,70.723,0,0,0,12.993-7.8A75.859,75.859,0,0,0,89.191,84.729,69.288,69.288,0,0,0,98.189,71.756ZM54.605,77.381A16.092,16.092,0,0,1,57.038,73.8a19.239,19.239,0,0,1,3.424-3.015,20.618,20.618,0,0,1,4.175-2.226,20.032,20.032,0,0,1,4.673-1.219,11.129,11.129,0,0,1,3.945.061,3.83,3.83,0,0,1,2.274,1.334,3.451,3.451,0,0,1,.605,2.419,9.083,9.083,0,0,1-1.063,3.322,16.841,16.841,0,0,1-2.383,3.471A19.316,19.316,0,0,1,69.4,80.9a20.2,20.2,0,0,1-4.027,2.218,19.9,19.9,0,0,1-4.61,1.273,11.854,11.854,0,0,1-4.067.02,4.018,4.018,0,0,1-2.384-1.287,3.408,3.408,0,0,1-.7-2.408A8.764,8.764,0,0,1,54.605,77.381Z" transform="translate(51 283.63) rotate(-115)" fill="url(#linear-gradient-2)"/>
          </g>
          <g transform="matrix(-0.42, 0.91, -0.91, -0.42, 324.42, 108.1)" filter="url(#Path_25004-2)">
            <path id="Path_25004-4" data-name="Path 25004" d="M98.189,71.756a41.107,41.107,0,0,0,4.674-13.035,15.845,15.845,0,0,0-1.229-9.732,12.117,12.117,0,0,0-6.892-5.754,27.393,27.393,0,0,0-12.27-1.008,56.07,56.07,0,0,0-15.327,4.087,72.7,72.7,0,0,0-14.92,8.478A75.957,75.957,0,0,0,39.309,66.778a65.005,65.005,0,0,0-9.388,14.431c-.651,1.39-1.237,2.807-1.74,4.21a40.985,40.985,0,0,0-1.246,4.113,27.465,27.465,0,0,0-.665,3.77,14.437,14.437,0,0,0,0,3.192L34.5,93.2a16.319,16.319,0,0,1,.028-3.07,23.6,23.6,0,0,1,.571-3.277,31.809,31.809,0,0,1,1.033-3.373c.413-1.129.889-2.254,1.413-3.355A49.726,49.726,0,0,1,44.76,69.148a57.627,57.627,0,0,1,9.919-9.1,56.5,56.5,0,0,1,11.576-6.478A46.39,46.39,0,0,1,78.4,50.35a23.076,23.076,0,0,1,9.822.632,9.7,9.7,0,0,1,5.61,4.3A11.656,11.656,0,0,1,95,62.689a30.293,30.293,0,0,1-3.48,10.017,55.287,55.287,0,0,1-7.046,10.306,58.459,58.459,0,0,1-8.983,8.435A54.224,54.224,0,0,1,65.2,97.607a44.242,44.242,0,0,1-11.012,3.406,41.179,41.179,0,0,1-5.4.586,11.4,11.4,0,0,1-3.45-.314,2.239,2.239,0,0,1-1.565-1.153,2.337,2.337,0,0,1,.246-1.924,5.944,5.944,0,0,1,.861-1.292,6.59,6.59,0,0,1,1.309-1.142,8.6,8.6,0,0,1,1.821-.912,12.622,12.622,0,0,1,2.392-.6l23.7-3.739,4.628-8.937-4.251.635a32.315,32.315,0,0,0,3.084-2.3,30.06,30.06,0,0,0,2.725-2.609A28.556,28.556,0,0,0,82.629,74.4a27.86,27.86,0,0,0,1.944-3.2,15.667,15.667,0,0,0,1.887-6.013,6.886,6.886,0,0,0-1.137-4.568,7.271,7.271,0,0,0-4.113-2.674,18.077,18.077,0,0,0-7.037-.3A33.734,33.734,0,0,0,65.7,59.9a40.262,40.262,0,0,0-7.864,4.286,38.4,38.4,0,0,0-6.53,5.73,28.4,28.4,0,0,0-4.5,6.557,19.32,19.32,0,0,0-1.412,3.775,9.012,9.012,0,0,0-.272,3.05,5.073,5.073,0,0,0,.811,2.339,5.226,5.226,0,0,0,1.835,1.643,23.106,23.106,0,0,0-3.561,1.84,21.51,21.51,0,0,0-3.082,2.364,20.479,20.479,0,0,0-2.547,2.83,20.042,20.042,0,0,0-1.96,3.235,10.388,10.388,0,0,0-1.27,5.355,4.74,4.74,0,0,0,2.079,3.566,10.637,10.637,0,0,0,5.285,1.589,34.417,34.417,0,0,0,8.342-.555,55.5,55.5,0,0,0,13.7-4.335,70.723,70.723,0,0,0,12.993-7.8A75.859,75.859,0,0,0,89.191,84.729,69.288,69.288,0,0,0,98.189,71.756ZM54.605,77.381A16.092,16.092,0,0,1,57.038,73.8a19.239,19.239,0,0,1,3.424-3.015,20.618,20.618,0,0,1,4.175-2.226,20.032,20.032,0,0,1,4.673-1.219,11.129,11.129,0,0,1,3.945.061,3.83,3.83,0,0,1,2.274,1.334,3.451,3.451,0,0,1,.605,2.419,9.083,9.083,0,0,1-1.063,3.322,16.841,16.841,0,0,1-2.383,3.471A19.316,19.316,0,0,1,69.4,80.9a20.2,20.2,0,0,1-4.027,2.218,19.9,19.9,0,0,1-4.61,1.273,11.854,11.854,0,0,1-4.067.02,4.018,4.018,0,0,1-2.384-1.287,3.408,3.408,0,0,1-.7-2.408A8.764,8.764,0,0,1,54.605,77.381Z" transform="translate(51 283.63) rotate(-115)" fill="#fff"/>
          </g>
        </g>
      </g>
      <g id="Group_83264" data-name="Group 83264" transform="translate(208.163 5211.811)">
        <g data-type="innerShadowGroup">
          <path id="Path_25002-2" data-name="Path 25002" d="M46.8,102.157S69.143-7.821,16.846.444C4.869,3.383.215,13.541.007,25.727s4.47,20.888,14.514,31.7S28,76.176,32.293,94.505s-3.966,39.488,2.7,38.719S46.8,102.157,46.8,102.157Z" transform="translate(16.238 0) rotate(7)" fill="url(#radial-gradient)"/>
          <g transform="matrix(1, 0, 0, 1, -82.88, -5)" filter="url(#Path_25002)">
            <path id="Path_25002-3" data-name="Path 25002" d="M46.8,102.157S69.143-7.821,16.846.444C4.869,3.383.215,13.541.007,25.727s4.47,20.888,14.514,31.7S28,76.176,32.293,94.505s-3.966,39.488,2.7,38.719S46.8,102.157,46.8,102.157Z" transform="translate(99.12 5) rotate(7)" fill="#fff"/>
          </g>
        </g>
        <g data-type="innerShadowGroup">
          <path id="Path_25005-2" data-name="Path 25005" d="M33.489,22.246s15.989,78.7-21.434,72.784C3.485,92.926.154,85.658,0,76.937S3.2,61.99,10.391,54.25s9.647-13.414,12.718-26.529S20.27-.536,25.041.015,33.489,22.246,33.489,22.246Z" transform="matrix(-0.407, -0.914, 0.914, -0.407, 62.955, 156.345)" fill="url(#radial-gradient-2)"/>
          <g transform="matrix(1, 0, 0, 1, -82.88, -5)" filter="url(#Path_25005)">
            <path id="Path_25005-3" data-name="Path 25005" d="M33.489,22.246s15.989,78.7-21.434,72.784C3.485,92.926.154,85.658,0,76.937S3.2,61.99,10.391,54.25s9.647-13.414,12.718-26.529S20.27-.536,25.041.015,33.489,22.246,33.489,22.246Z" transform="matrix(-0.41, -0.91, 0.91, -0.41, 145.84, 161.35)" fill="#fff"/>
          </g>
        </g>
      </g>
    </g>
  </g>
</svg>
