<svg xmlns="http://www.w3.org/2000/svg" width="17.432" height="16.658" viewBox="0 0 17.432 16.658">
  <g id="linkedin-logo_1_" data-name="linkedin-logo (1)" transform="translate(-60 -194)">
    <path id="LinkedIn" d="M17.432,19.771v6.445H13.7V20.2c0-1.511-.54-2.541-1.893-2.541a2.044,2.044,0,0,0-1.917,1.367,2.557,2.557,0,0,0-.124.911v6.277H6.025s.05-10.184,0-11.24H9.762v1.593c-.008.012-.017.025-.025.036h.025v-.036a3.711,3.711,0,0,1,3.368-1.857C15.589,14.712,17.432,16.318,17.432,19.771ZM2.115,9.558a1.948,1.948,0,1,0-.05,3.885H2.09a1.948,1.948,0,1,0,.025-3.885ZM.222,26.216H3.958V14.976H.222Z" transform="translate(60 184.442)" fill="#fff"/>
  </g>
</svg>
