<svg xmlns="http://www.w3.org/2000/svg" width="14.728" height="18.127" viewBox="0 0 14.728 18.127">
  <path id="Pinterest_icon" d="M7.61,0C2.642,0,0,3.184,0,6.655c0,1.61.9,3.618,2.34,4.254.219.1.338.057.386-.146.043-.154.232-.9.324-1.246A.32.32,0,0,0,2.973,9.2,4.128,4.128,0,0,1,2.115,6.7a4.883,4.883,0,0,1,5.2-4.772c2.832,0,4.814,1.84,4.814,4.472,0,2.974-1.574,5.032-3.619,5.032A1.62,1.62,0,0,1,6.8,9.441a21.54,21.54,0,0,0,.956-3.66A1.406,1.406,0,0,0,6.305,4.235c-1.152,0-2.087,1.141-2.087,2.673a3.811,3.811,0,0,0,.344,1.63S3.423,13.143,3.211,14a12.227,12.227,0,0,0,.084,4.016.119.119,0,0,0,.218.056,14.275,14.275,0,0,0,1.876-3.534c.14-.518.717-2.617.717-2.617a3.132,3.132,0,0,0,2.642,1.26c3.472,0,5.98-3.051,5.98-6.838C14.715,2.716,11.609,0,7.61,0Z" fill="#252e48"/>
</svg>
