<svg xmlns="http://www.w3.org/2000/svg" width="157.516" height="35.923" viewBox="0 0 157.516 35.923">
  <g id="Renderforest_logo" transform="translate(-100 -770)">
    <path id="Shape" d="M26.239,16.5l-6.32-4.158L2.6,1.7A15.814,15.814,0,0,1,5.6,6.7a16.6,16.6,0,0,1,.945,3.694l12.987,8.122a1.059,1.059,0,0,1,.222,1.538h0l-.049.055-.056.055H19.62l-.09.069L6.987,27.858a.757.757,0,0,1-1.181-.624V9.847A16.658,16.658,0,0,0,4.966,6.7,14.74,14.74,0,0,0,.41.27L0,0V32.723A3.216,3.216,0,0,0,4.98,35.4L26.239,22.176a3.392,3.392,0,0,0,0-5.676Z" transform="translate(100 770)" fill="#252e48" opacity="0.47"/>
    <path id="Shape-2" data-name="Shape" d="M26.239,16.5l-6.32-4.158a4.9,4.9,0,0,1-.153,7.706h0l-.049.055-.056.055h-.035l-.09.069-9.029,5.308h0L7.035,27.886a.757.757,0,0,1-1.181-.624V9.875A16.659,16.659,0,0,0,4.966,6.7,14.74,14.74,0,0,0,.41.27L0,0V32.723A3.216,3.216,0,0,0,4.98,35.4L26.239,22.176a3.392,3.392,0,0,0,0-5.676Z" transform="translate(100 770)" fill="#252e48"/>
    <path id="Shape-3" data-name="Shape" d="M11.133,14.948H8.084c-.2,0-.284-.167-.371-.343l-.026-.052L5,9.522H4.778c-.217,0-.487-.011-.748-.022-.243-.01-.471-.02-.641-.02v5.073a.4.4,0,0,1-.4.395H.4a.4.4,0,0,1-.4-.395V1.219C0,.53.276.368.9.264A31.747,31.747,0,0,1,4.938,0c3.977,0,5.994,1.564,5.994,4.65v.256a3.991,3.991,0,0,1-2.57,3.978l3.007,5.607a.52.52,0,0,1,.062.221C11.431,14.866,11.328,14.948,11.133,14.948ZM4.931,2.89c-.281,0-1.313.041-1.556.062V6.77c.114,0,.428.011.732.022s.563.02.657.02a3.88,3.88,0,0,0,2.17-.436,1.608,1.608,0,0,0,.607-1.449v-.27C7.542,3.484,6.664,2.89,4.931,2.89Z" transform="translate(134.587 780)" fill="#252e48"/>
    <path id="Shape-4" data-name="Shape" d="M5.286,11.721l-.286,0A5.271,5.271,0,0,1,1.6,10.6,4.94,4.94,0,0,1,0,6.611V5.225A5.389,5.389,0,0,1,1.334,1.412,4.968,4.968,0,0,1,5.042,0,4.724,4.724,0,0,1,8.688,1.487,5.49,5.49,0,0,1,9.959,5.225V6.375c-.035.3-.2.471-.451.471H3.153v.042A1.9,1.9,0,0,0,5.237,9.057c1.23,0,3-.095,3.826-.18h.063c.242,0,.375.113.375.319v1.511c0,.3-.06.454-.417.534A15.252,15.252,0,0,1,5.286,11.721Zm-.3-9.157c-1.148,0-1.833.824-1.833,2.2v.076H6.778V4.767a2.5,2.5,0,0,0-.484-1.653A1.626,1.626,0,0,0,4.986,2.564Z" transform="translate(147.664 783)" fill="#252e48"/>
    <path id="Shape-5" data-name="Shape" d="M9.418,11.566H6.973a.416.416,0,0,1-.4-.416V4.158c0-.873-.139-1.49-1.174-1.49h-1c-1.035,0-1.174.617-1.174,1.49v7.013a.416.416,0,0,1-.4.416H.375A.4.4,0,0,1,0,11.171V4.158C0,1.386,1.535,0,4.4,0H5.4C8.265,0,9.8,1.386,9.8,4.158v7.013A.4.4,0,0,1,9.418,11.566Z" transform="translate(159.582 783)" fill="#252e48"/>
    <path id="Shape-6" data-name="Shape" d="M5,15.454a4.963,4.963,0,0,1-3.711-1.338A5.176,5.176,0,0,1,0,10.367V8.808c0-3.28,1.776-5.086,5-5.086a13.8,13.8,0,0,1,1.632.139V.395A.4.4,0,0,1,7.029,0H9.417a.415.415,0,0,1,.417.395V14.324c-.02.35-.112.487-.611.61A18.635,18.635,0,0,1,5,15.454ZM4.973,6.389c-1.222,0-1.792.771-1.792,2.426v1.552c0,1.669.569,2.446,1.792,2.446H5A11.027,11.027,0,0,0,6.6,12.7V6.486A15.308,15.308,0,0,0,4.973,6.389Z" transform="translate(171.34 779)" fill="#252e48"/>
    <path id="Shape-7" data-name="Shape" d="M5.286,11.721l-.286,0A5.271,5.271,0,0,1,1.6,10.6,4.94,4.94,0,0,1,0,6.611V5.225A5.389,5.389,0,0,1,1.334,1.412,4.968,4.968,0,0,1,5.042,0,4.724,4.724,0,0,1,8.688,1.487,5.49,5.49,0,0,1,9.959,5.225V6.375c0,.3-.148.471-.417.471H3.188v.042A1.9,1.9,0,0,0,5.271,9.057c1.231,0,3-.095,3.827-.18h.028c.242,0,.375.113.375.319v1.511c0,.3-.06.454-.417.534A15.252,15.252,0,0,1,5.286,11.721ZM5.021,2.564c-1.148,0-1.833.824-1.833,2.2v.076H6.813V4.767C6.813,3.367,6.16,2.564,5.021,2.564Z" transform="translate(183.244 783)" fill="#252e48"/>
    <path id="Shape-8" data-name="Shape" d="M5.014,2.691a11.93,11.93,0,0,0-1.792.118v8.35a.416.416,0,0,1-.4.416H.417A.437.437,0,0,1,0,11.16V1.222C0,.945.16.744.618.585A13.279,13.279,0,0,1,5.021.01c.236,0,.535.1.535.374V2.31C5.549,2.532,5.4,2.691,5.014,2.691Z" transform="translate(195.301 783)" fill="#252e48"/>
    <path id="Shape-9" data-name="Shape" d="M5.952,6.556H3.243v8.586a.437.437,0,0,1-.417.416H.417A.437.437,0,0,1,0,15.142V3.361C0,.589,1.875,0,3.882,0A17.748,17.748,0,0,1,6.056.18c.222.042.3.118.3.236v1.67c0,.222-.076.319-.278.319H3.993c-.618,0-.757.374-.757.956v.8H5.945a.4.4,0,0,1,.4.4v1.58a.4.4,0,0,1-.389.423Z" transform="translate(202.447 779)" fill="#252e48"/>
    <path id="Shape-10" data-name="Shape" d="M5,11.726a4.939,4.939,0,0,1-3.711-1.4A5.37,5.37,0,0,1,0,6.555V5.17A5.369,5.369,0,0,1,1.289,1.4,4.939,4.939,0,0,1,5,0,4.91,4.91,0,0,1,8.7,1.4,5.389,5.389,0,0,1,9.98,5.17V6.555A5.392,5.392,0,0,1,8.7,10.328,4.912,4.912,0,0,1,5,11.726ZM5,2.745c-1.172,0-1.792.839-1.792,2.425V6.555C3.208,8.156,3.828,9,5,9s1.772-.846,1.772-2.447V5.17C6.772,3.583,6.159,2.745,5,2.745Z" transform="translate(210.17 783)" fill="#252e48"/>
    <path id="Shape-11" data-name="Shape" d="M5.014,2.691a11.93,11.93,0,0,0-1.792.118v8.35a.416.416,0,0,1-.4.416H.417A.437.437,0,0,1,0,11.16V1.222C0,.945.16.744.618.585A13.279,13.279,0,0,1,5.021.01c.236,0,.535.1.535.374V2.31C5.563,2.532,5.4,2.691,5.014,2.691Z" transform="translate(222.227 783)" fill="#252e48"/>
    <path id="Shape-12" data-name="Shape" d="M5.286,11.721l-.286,0A5.271,5.271,0,0,1,1.6,10.6,4.94,4.94,0,0,1,0,6.611V5.225A5.389,5.389,0,0,1,1.334,1.412,4.968,4.968,0,0,1,5.042,0,4.724,4.724,0,0,1,8.688,1.487,5.49,5.49,0,0,1,9.959,5.225V6.375a.482.482,0,0,1-.451.471H3.153v.042A1.9,1.9,0,0,0,5.237,9.057c1.23,0,3-.095,3.826-.18h.063c.242,0,.375.113.375.319v1.511c0,.3-.06.454-.417.534A15.252,15.252,0,0,1,5.286,11.721Zm-.3-9.157c-1.148,0-1.833.824-1.833,2.2v.076H6.778V4.767a2.5,2.5,0,0,0-.484-1.653A1.626,1.626,0,0,0,4.986,2.564Z" transform="translate(229.172 783)" fill="#252e48"/>
    <path id="Shape-13" data-name="Shape" d="M4.084,11.719a15.6,15.6,0,0,1-3.625-.437.451.451,0,0,1-.375-.457V9.217a.368.368,0,0,1,.375-.374H.535c1.076.139,2.778.277,3.389.277.958,0,1.174-.256,1.174-.776,0-.3-.181-.52-.736-.832L1.771,6.023A3.284,3.284,0,0,1,0,3.085C0,1.075,1.334,0,4.084,0A12.91,12.91,0,0,1,7.633.458a.451.451,0,0,1,.375.457V2.523c0,.236-.118.374-.319.374H7.612a32.016,32.016,0,0,0-3.306-.256c-.778,0-1.056.118-1.056.575,0,.3.222.457.618.693L6.341,5.3A3.3,3.3,0,0,1,8.355,8.358C8.348,10.25,6.994,11.719,4.084,11.719Z" transform="translate(240.826 783)" fill="#252e48"/>
    <path id="Shape-14" data-name="Shape" d="M5.98,4.906H3.25v5.9c0,.693.319.818,1.174.818H5.917c.257,0,.417.118.417.34v1.525c0,.222-.139.36-.4.4a15.883,15.883,0,0,1-2.389.18C1.32,14.068,0,13.375,0,10.79V.811a.43.43,0,0,1,.4-.4L2.827,0h.063A.409.409,0,0,1,3.25.4V2.474H5.98a.4.4,0,0,1,.4.4V4.484a.4.4,0,0,1-.4.423Z" transform="translate(251.139 780)" fill="#252e48"/>
  </g>
</svg>
