<svg id="Layer_1" data-name="Layer 1" xmlns="http://www.w3.org/2000/svg" xmlns:xlink="http://www.w3.org/1999/xlink" viewBox="0 0 30 30"><defs><style>.cls-1,.cls-2{fill:none;}.cls-2{clip-path:url(#clip-path);}.cls-3{clip-path:url(#clip-path-2);}.cls-4{clip-path:url(#clip-path-3);}.cls-5{clip-path:url(#clip-path-4);}.cls-6{clip-path:url(#clip-path-5);}.cls-7{fill:#377dff;}.cls-8{clip-path:url(#clip-path-6);}</style><clipPath id="clip-path"><rect class="cls-1" x="-0.67" y="-0.67" width="18" height="18"/></clipPath><clipPath id="clip-path-2" transform="translate(6.67 6.67)"><path class="cls-1" d="M11.29,13.68a7.32,7.32,0,0,1-6.74.57,7.4,7.4,0,1,1,8-12.08,7.43,7.43,0,0,1,1.09,9.07L16.43,14a.83.83,0,0,1,0,1.17l-1.24,1.25a.82.82,0,0,1-1.16,0h0Zm-7-9.37a4.37,4.37,0,0,0,0,6.14,4.31,4.31,0,0,0,6.09,0l0,0a4.35,4.35,0,0,0,0-6.14,4.31,4.31,0,0,0-6.08,0Z"/></clipPath><clipPath id="clip-path-3" transform="translate(6.67 6.67)"><rect class="cls-1" x="-1275.67" y="-183.67" width="1440" height="1976"/></clipPath><clipPath id="clip-path-4" transform="translate(6.67 6.67)"><rect class="cls-1" x="-5.67" y="-5.67" width="28" height="28"/></clipPath><clipPath id="clip-path-5" transform="translate(6.67 6.67)"><rect class="cls-2" x="-1.67" y="-1.67" width="20" height="20"/></clipPath><clipPath id="clip-path-6" transform="translate(6.67 6.67)"><rect class="cls-1" x="-0.67" y="-0.67" width="18" height="18"/></clipPath></defs><title>seacrh</title><g class="cls-3"><g class="cls-4"><g id="Group_647" data-name="Group 647"><g class="cls-5"><g id="Group_646" data-name="Group 646"><g id="Group_645" data-name="Group 645"><g class="cls-6"><g id="Group_641" data-name="Group 641"><path id="Path_610" data-name="Path 610" class="cls-7" d="M-5-5H21.67V21.67H-5Z" transform="translate(6.67 6.67)"/></g><g id="Group_644" data-name="Group 644"><g id="Group_643" data-name="Group 643"><g class="cls-8"><g id="Group_642" data-name="Group 642"><path id="Path_612" data-name="Path 612" class="cls-7" d="M-6.67-6.67h30v30h-30Z" transform="translate(6.67 6.67)"/></g></g></g></g></g></g></g></g></g></g></g></svg>