<svg xmlns="http://www.w3.org/2000/svg" width="22.316" height="18.127" viewBox="0 0 22.316 18.127">
  <path id="twitter_icon" d="M22.316,2.145a9.142,9.142,0,0,1-2.629.721A4.6,4.6,0,0,0,21.7.335a9.229,9.229,0,0,1-2.909,1.111,4.582,4.582,0,0,0-7.8,4.174A13,13,0,0,1,1.555.837,4.583,4.583,0,0,0,2.972,6.947,4.578,4.578,0,0,1,.9,6.373V6.43A4.583,4.583,0,0,0,4.57,10.919a4.637,4.637,0,0,1-1.206.16,4.394,4.394,0,0,1-.862-.085,4.58,4.58,0,0,0,4.276,3.179A9.185,9.185,0,0,1,1.092,16.13,9.73,9.73,0,0,1,0,16.067a12.94,12.94,0,0,0,7.017,2.06A12.935,12.935,0,0,0,20.042,5.1l-.015-.593A9.142,9.142,0,0,0,22.316,2.145Z" fill="#252e48"/>
</svg>
