<svg xmlns="http://www.w3.org/2000/svg" width="19.045" height="15.47" viewBox="0 0 19.045 15.47">
  <g id="twitter-logo-silhouette" transform="translate(-59 -133)">
    <g id="Group_727" data-name="Group 727" transform="translate(59 133)">
      <path id="Path_598" data-name="Path 598" d="M19.046,59.271a7.8,7.8,0,0,1-2.243.615,3.923,3.923,0,0,0,1.717-2.16,7.876,7.876,0,0,1-2.482.948A3.91,3.91,0,0,0,9.38,62.237a11.092,11.092,0,0,1-8.052-4.082A3.911,3.911,0,0,0,2.537,63.37a3.907,3.907,0,0,1-1.77-.49v.049A3.911,3.911,0,0,0,3.9,66.759a3.957,3.957,0,0,1-1.029.137,3.75,3.75,0,0,1-.735-.073,3.909,3.909,0,0,0,3.649,2.713,7.838,7.838,0,0,1-4.852,1.67A8.3,8.3,0,0,1,0,71.153a11.043,11.043,0,0,0,5.988,1.758A11.039,11.039,0,0,0,17.1,61.8l-.013-.506A7.8,7.8,0,0,0,19.046,59.271Z" transform="translate(-0.001 -57.441)" fill="#fff"/>
    </g>
  </g>
</svg>
