<svg xmlns="http://www.w3.org/2000/svg" width="23.653" height="17.031" viewBox="0 0 23.653 17.031">
  <path id="youtube_icon" d="M17.949,16.031H4.705A4.71,4.71,0,0,1,0,11.325V4.705A4.71,4.71,0,0,1,4.705,0H17.949a4.71,4.71,0,0,1,4.7,4.705v6.62A4.71,4.71,0,0,1,17.949,16.031ZM8.465,4.725a.249.249,0,0,0-.248.249v6.094a.249.249,0,0,0,.249.248.253.253,0,0,0,.107-.024l6.194-2.954a.249.249,0,0,0,.005-.447L8.578,4.752A.249.249,0,0,0,8.465,4.725Z" transform="translate(0.5 0.5)" fill="#252e48" stroke="rgba(0,0,0,0)" stroke-width="1"/>
</svg>
